<svg id="svg" version="1.1" xmlns="http://www.w3.org/2000/svg" xmlns:xlink="http://www.w3.org/1999/xlink" width="400" height="400" viewBox="0, 0, 400,400"><g id="svgg"><path id="path0" d="M41.071 22.321 C 27.195 36.198,26.334 315.880,40.110 334.743 C 47.785 345.252,58.353 347.161,119.115 349.014 C 178.959 350.839,191.196 352.992,202.442 363.677 C 220.866 381.179,239.840 387.500,273.956 387.500 C 369.734 387.500,404.127 260.433,322.876 206.765 L 300.000 191.656 300.000 142.041 L 300.000 92.427 257.813 52.733 L 215.625 13.040 133.259 12.770 C 66.458 12.551,49.037 14.356,41.071 22.321 M193.750 58.921 C 193.750 93.514,213.982 112.500,250.843 112.500 L 275.000 112.500 275.000 153.125 L 275.000 193.750 255.425 193.750 C 208.697 193.750,163.776 250.188,170.515 300.429 L 173.811 325.000 119.405 325.000 C 46.038 325.000,50.000 333.123,50.000 182.714 C 50.000 22.093,45.264 31.250,128.345 31.250 L 193.750 31.250 193.750 58.921 M246.970 86.466 C 229.087 90.132,218.750 82.141,218.750 64.652 L 218.750 47.661 237.960 66.018 C 253.204 80.586,255.064 84.807,246.970 86.466 M319.613 235.202 C 351.581 265.829,353.639 310.140,324.532 341.123 C 278.556 390.063,202.911 364.452,195.352 297.387 C 187.516 227.868,269.260 186.961,319.613 235.202 M262.500 259.375 C 262.500 280.305,261.533 281.250,240.104 281.250 C 211.865 281.250,214.017 296.004,242.669 298.833 C 260.717 300.616,262.500 302.723,262.500 322.271 C 262.500 337.197,265.360 343.750,271.875 343.750 C 278.423 343.750,281.250 337.153,281.250 321.875 C 281.250 301.736,282.738 300.000,300.000 300.000 C 312.500 300.000,318.750 296.875,318.750 290.625 C 318.750 284.375,312.500 281.250,300.000 281.250 C 282.738 281.250,281.250 279.514,281.250 259.375 C 281.250 244.097,278.423 237.500,271.875 237.500 C 265.327 237.500,262.500 244.097,262.500 259.375 " stroke="none" fill="#000000" fill-rule="evenodd"></path></g></svg>