<svg id="svg" version="1.1" xmlns="http://www.w3.org/2000/svg" xmlns:xlink="http://www.w3.org/1999/xlink" width="400" height="400" viewBox="0, 0, 400,400"><g id="svgg"><path id="path0" d="M104.042 2.399 C 96.120 6.358,91.406 14.071,91.406 23.076 L 91.406 27.344 86.523 27.361 C 76.201 27.397,67.241 34.372,64.718 44.336 L 63.877 47.656 59.702 47.656 C 50.457 47.656,41.457 53.801,38.285 62.279 C 36.747 66.390,36.719 68.298,36.719 168.424 L 36.719 270.384 38.636 272.301 C 41.390 275.055,46.590 274.534,48.136 271.349 C 48.521 270.555,49.001 224.820,49.219 168.227 L 49.609 66.532 51.563 64.442 C 54.317 61.494,57.231 60.156,60.899 60.156 L 64.063 60.156 64.062 210.518 C 64.062 381.734,63.382 365.438,70.847 372.903 C 78.098 380.154,71.926 379.688,160.628 379.688 C 209.853 379.687,238.908 379.407,239.813 378.923 C 241.780 377.870,243.085 373.844,242.206 371.534 C 240.461 366.944,244.988 367.188,161.350 367.185 C 75.414 367.181,81.832 367.617,78.121 361.531 C 75.932 357.940,75.636 50.235,77.818 45.638 C 79.526 42.037,83.300 39.844,87.788 39.844 L 91.406 39.844 91.406 56.676 C 91.406 73.506,91.407 73.509,93.324 75.426 C 95.861 77.963,99.452 77.963,101.989 75.426 L 103.906 73.509 103.906 47.224 C 103.906 17.798,104.011 17.145,109.263 13.880 L 112.109 12.109 196.680 11.897 L 281.250 11.685 281.250 34.605 C 281.250 68.193,282.823 73.308,294.915 79.028 L 299.609 81.249 325.195 81.249 L 350.781 81.250 350.778 206.445 C 350.775 347.199,351.319 334.508,345.124 338.285 C 341.118 340.728,113.570 340.728,109.563 338.285 C 103.378 334.514,103.912 346.336,103.909 213.191 L 103.906 94.742 102.287 92.683 C 100.124 89.934,95.569 89.810,93.105 92.433 L 91.406 94.241 91.406 213.385 C 91.406 349.451,90.796 337.800,98.312 345.307 C 105.988 352.975,95.342 352.344,216.936 352.344 L 323.438 352.344 323.435 355.664 C 323.425 366.290,320.695 367.181,288.123 367.185 C 256.298 367.188,254.015 367.762,255.904 375.289 C 256.947 379.445,258.139 379.688,277.518 379.688 C 297.207 379.688,297.460 379.764,292.908 384.315 C 289.217 388.007,293.146 387.891,171.875 387.891 C 58.201 387.891,57.403 387.880,54.688 386.302 C 49.071 383.038,49.221 384.434,49.220 335.457 C 49.219 285.452,49.488 287.500,42.912 287.500 C 36.265 287.500,36.642 284.375,36.891 337.328 L 37.109 383.984 39.530 388.281 C 42.226 393.066,47.753 397.751,52.314 399.117 C 54.446 399.756,87.811 400.000,173.208 400.000 L 291.157 400.000 295.986 397.587 C 301.688 394.737,305.593 390.112,307.557 383.882 L 308.879 379.687 313.004 379.688 C 325.533 379.688,335.938 369.218,335.938 356.611 L 335.938 352.344 340.205 352.344 C 349.544 352.344,358.529 346.236,361.715 337.721 C 363.260 333.593,363.281 331.724,363.281 202.920 L 363.281 72.305 327.160 36.152 L 291.038 0.000 199.941 0.000 L 108.843 0.000 104.042 2.399 M321.781 68.568 C 293.140 68.873,294.250 69.986,293.910 40.625 L 293.680 20.703 317.549 44.531 L 341.417 68.359 321.781 68.568 M144.588 128.621 C 142.565 131.193,142.516 134.424,144.462 136.828 L 145.956 138.672 227.344 138.672 L 308.732 138.672 310.225 136.828 C 312.298 134.267,312.155 130.370,309.911 128.261 L 308.102 126.563 227.155 126.563 L 146.207 126.563 144.588 128.621 M146.484 170.427 C 142.651 172.539,141.862 176.508,144.588 179.973 L 146.207 182.031 227.264 182.031 L 308.321 182.031 310.020 180.223 C 312.132 177.975,312.223 174.233,310.225 171.766 L 308.732 169.922 228.389 169.744 C 171.042 169.617,147.600 169.813,146.484 170.427 M144.886 215.199 C 143.678 216.408,142.969 218.009,142.969 219.531 C 142.969 221.053,143.678 222.655,144.886 223.864 L 146.804 225.781 227.344 225.781 L 307.884 225.781 309.801 223.864 C 312.489 221.175,312.425 217.075,309.660 214.900 C 307.608 213.286,307.357 213.281,227.203 213.281 L 146.804 213.281 144.886 215.199 " stroke="none" fill="#000" fill-rule="evenodd"></path></g></svg>