<svg id="svg" version="1.1" xmlns="http://www.w3.org/2000/svg" xmlns:xlink="http://www.w3.org/1999/xlink" width="400" height="400" viewBox="0, 0, 400,400"><g id="svgg"><path id="path0" d="M197.731 25.258 C 193.811 35.473,198.444 38.701,220.826 41.352 C 269.893 47.163,271.443 51.986,271.729 199.757 C 272.016 348.060,270.793 351.825,220.000 359.002 C 201.761 361.579,198.000 363.468,198.000 370.055 C 198.000 385.199,244.260 380.904,268.717 363.490 L 280.000 355.455 291.283 363.490 C 315.740 380.904,362.000 385.199,362.000 370.055 C 362.000 363.468,358.239 361.579,340.000 359.002 C 304.302 353.958,288.171 337.187,288.059 305.000 L 288.000 288.000 340.000 288.000 L 392.000 288.000 392.000 200.000 L 392.000 112.000 340.000 112.000 L 288.000 112.000 288.059 95.000 C 288.171 62.813,304.302 46.042,340.000 40.998 C 358.239 38.421,362.000 36.532,362.000 29.945 C 362.000 17.517,322.838 19.494,298.393 33.157 L 280.000 43.437 262.116 33.441 C 239.427 20.760,201.316 15.916,197.731 25.258 M8.000 200.000 L 8.000 288.000 128.000 288.000 C 245.333 288.000,248.000 287.822,248.000 280.000 C 248.000 272.190,245.333 272.000,136.000 272.000 L 24.000 272.000 24.000 200.000 L 24.000 128.000 136.000 128.000 C 245.333 128.000,248.000 127.810,248.000 120.000 C 248.000 112.178,245.333 112.000,128.000 112.000 L 8.000 112.000 8.000 200.000 M376.000 200.000 L 376.000 272.000 332.000 272.000 L 288.000 272.000 288.000 200.000 L 288.000 128.000 332.000 128.000 L 376.000 128.000 376.000 200.000 " stroke="none" fill="#000000" fill-rule="evenodd"></path></g></svg>