<svg id="svg" version="1.1" xmlns="http://www.w3.org/2000/svg" xmlns:xlink="http://www.w3.org/1999/xlink" width="400" height="400" viewBox="0, 0, 400,400"><g id="svgg"><path id="path0" d="M11.940 164.179 L 11.940 298.507 97.731 298.507 L 183.522 298.507 186.562 271.533 C 194.960 197.028,266.677 154.890,333.488 185.206 C 347.802 191.701,360.563 197.015,361.846 197.015 C 363.129 197.015,364.179 167.463,364.179 131.343 L 364.179 65.672 264.179 65.634 L 164.179 65.596 154.009 47.723 L 143.839 29.851 77.890 29.851 L 11.940 29.851 11.940 164.179 M256.716 191.766 C 200.328 214.185,180.519 288.802,218.859 334.367 C 276.959 403.415,382.090 366.861,382.090 277.612 C 382.090 211.417,317.877 167.449,256.716 191.766 M315.689 246.177 C 339.958 272.195,343.440 291.238,319.881 269.106 C 300.215 250.630,298.507 252.979,298.507 298.507 C 298.507 331.675,296.660 340.299,289.552 340.299 C 282.445 340.299,280.597 331.675,280.597 298.507 C 280.597 254.383,277.139 249.389,259.829 268.516 C 253.956 275.006,246.572 278.722,243.420 276.774 C 238.993 274.038,283.843 220.896,290.580 220.896 C 291.419 220.896,302.718 232.272,315.689 246.177 " stroke="none" fill="#000000" fill-rule="evenodd"></path></g></svg>