<?xml version="1.0" encoding="utf-8"?>
<!-- Generator: Adobe Illustrator 26.0.1, SVG Export Plug-In . SVG Version: 6.00 Build 0)  -->
<svg version="1.1" id="svg" xmlns="http://www.w3.org/2000/svg" xmlns:xlink="http://www.w3.org/1999/xlink" x="0px" y="0px"
	 viewBox="0 0 400 493.6" style="enable-background:new 0 0 400 493.6;" xml:space="preserve">
<style type="text/css">
	.st0{fill-rule:evenodd;clip-rule:evenodd;fill:#974820;}
	.st1{fill-rule:evenodd;clip-rule:evenodd;fill:#FACD85;}
	.st2{fill-rule:evenodd;clip-rule:evenodd;fill:#71A3AA;}
	.st3{fill-rule:evenodd;clip-rule:evenodd;fill:#E3A76A;}
	.st4{fill-rule:evenodd;clip-rule:evenodd;fill:#FBF1D2;}
	.st5{fill-rule:evenodd;clip-rule:evenodd;fill:#F37C7C;}
	.st6{fill-rule:evenodd;clip-rule:evenodd;fill:#E6C4BC;}
</style>
<g id="svgg">
	<path id="path0" class="st0" d="M151.1,15.8c-5.3,1.9-6.7,7-4,14.9c3.3,9.9,1.3,17.8-7.7,30.3c-10.5,14.6-12.1,18.4-12.4,30
		c-0.2,7.7,0.3,12.2,2.1,16.9c2.2,5.7,2.3,4.8-1.4,11.3c-7.1,12.4-10.8,16.7-18.4,21.4c-14.3,8.8-22.6,18.6-24.4,28.8
		c-0.9,4.9-0.3,18.5,1,22.7c5.2,17.6,12.8,28,24.6,33.6c10.9,5.2,10.7,5,7.3,7.1c-18.1,11-34.3,24.5-37.8,31.5
		c-2.2,4.4-1.8,9.2,1,12.8l0.9,1.1l-2.1,2.9c-18.1,25.4-25.5,57.4-20,86.3c1.1,5.6,1.1,7.3,0.2,11.2c-0.4,1.6-1,5.9-1.4,9.4
		c-0.9,8.3-1.6,9.1-8.7,10c-6.8,0.9-9.8,6.4-6.2,11.8c5.8,8.9,34.9,28.2,58.1,38.3c11.5,5.1,18.8,5.1,32.6,0.1l5.7-2.1l4.1,0.7
		c3.2,0.5,6.9,0.7,16,0.8l11.8,0.1l1.8,1.3c2.5,1.7,8.6,4.7,11.9,5.7c3.3,1.1,3.3,1.1,2.1,4.6c-0.9,2.5-1.1,4.5-1,7.5
		c0.1,1.6,2.6,4,4.9,4.7c10.8,2.9,47.4-9.1,63.8-21l2.9-2.1l6.3-0.5c24.8-2,39.4-5.1,44.9-9.9c3-2.5,8-17.9,9.9-30.4
		c0.3-2.2,0.7-4.4,0.8-4.9c0.1-0.6,2.3-2.3,6.4-5.1c10.8-7.3,15.8-11.4,23.4-19c17.7-17.7,26.5-35.5,20.6-41.6
		c-3.3-3.3-6-3.2-19.2,1.2c-15.2,5-23.6,7.1-35.4,8.7c-5.8,0.8-5.4,1-7.4-3.8c-5.5-12.9-21-32.8-32-41.2c-3.4-2.6-3.4-2.6-1.8-6.1
		c2.5-5.2,5.6-7.7,12.8-10.2c8.3-2.9,19.3-0.1,21.5,5.6c1.6,4.1,2.7,5.1,5.4,5.1c3.6,0,5.1-4,3.5-9.5c-1.4-4.9,0-12,3.4-16.6
		c4.1-5.5,15.5-10.6,21.4-9.5c8.1,1.5,11.8-0.2,11.8-5.3V253l-3.1-3c-2.8-2.7-10.2-8-21.9-15.8c-21.6-14.2-40.2-13.9-58.1,1
		c-4.7,3.9-4.5,4.2-4.6-5.7c-0.1-6.7,0-7.2,1.6-15c6.5-31.3,6.5-63.9,0-83.6c-4.3-13.3-14.1-25-28.5-34.4c-4.8-3.1-4.6-3.2,5.1-3.6
		c11.5-0.4,15.9-2.1,22.5-8.4c11.3-10.9,9.4-27-3.2-27c-3.8,0-4.4,0.3-9.5,5.6c-5.3,5.4-7.5,6.8-14,9c-4.3,1.5-4.9,1.5-19,2.6
		c-7.9,0.6-14.1,2.7-18.8,6.3l-2,1.5l-6.1-0.1l-6.1-0.1l-3.6-3.7c-6.1-6.4-11.4-9.4-16.4-9.4c-5.7,0-8.1,3.9-9.9,16.1l-0.7,4.8
		l-3.6,2.1c-4.4,2.6-5,2.7-5,0.6c0-3.5,2.1-8.1,7.3-16.2c14.5-22.6,16.4-45.3,4.7-57.1C158.2,15.3,155.1,14.3,151.1,15.8 M157.7,24
		c9.2,9.8,6.7,29.5-6.2,49c-7.1,10.7-9,17.6-7.2,26l0.7,3l-3.8,3.6c-4.4,4.3-4.1,4.2-5.4,1.5c-2-4.3-2.4-6.8-2.4-14.3
		c0-9.8,1.7-14.7,8-23.4c13.7-18.8,16.4-28.3,11.7-41.2C150.8,21.7,153.3,19.4,157.7,24 M267,64.5c3.7,3.2,2.1,9.6-3.7,15.1
		c-5.5,5.3-8.3,6.1-23.1,6.9c-19.4,1.1-27.3,5-32.4,15.9c-2.1,4.4-2.8,5.1-5.5,5.1c-8.7,0-3.9-16.5,6.6-22.7
		c5.2-3.1,8.9-3.9,22.9-4.8c11-0.8,20.7-4.7,26-10.5C263.7,63,264.6,62.5,267,64.5 M172.2,76.1c4,1.9,10.7,7.9,9.9,8.7
		c-0.2,0.2-2.1,0.7-4.3,1.2c-2.1,0.4-5.7,1.4-7.8,2.1c-4.8,1.6-4.9,1.6-4.1-3C167.6,75.3,168.3,74.3,172.2,76.1 M43.4,87
		c-2,0.9-5.2,4-6.9,6.5c-0.8,1.1-1.1,1.3-3.6,1.4c-11.5,0.8-17,14.7-9.1,23.1c4.9,5.1,8.9,6.5,23.1,7.8c9.8,0.9,9.9,0.8,12.7-8.5
		c4.9-16.5,3.1-27.2-5-30.6C52.1,85.6,45.9,85.8,43.4,87 M198.2,88.9c0.1,0.1-0.5,1.7-1.4,3.5c-5.4,10.7-2.9,19.2,5.6,19.2
		c4.4,0,5.9-1.2,8.5-6.8c2.5-5.2,7.9-10.8,10.5-10.8c1.3,0,11,5,15.4,8c21.6,14.5,28.9,29.1,30.2,60.4c0.6,15.6-2.6,44.6-6.4,57.9
		c-0.5,1.8-0.6,3.1-0.2,8.4c0.2,3.4,0.5,8.4,0.6,11.1c0.6,12.4,1.6,23.2,3.2,34.6c0.6,4.3,1.3,10.8,2.4,22
		c1.7,17.3,3.6,21.8,15.5,36.8c6.2,7.8,11.3,15.9,10.5,16.7c-0.1,0.1-2-0.3-4.2-1c-18.1-5.7-48.7-6.6-67.6-1.9
		c-5.5,1.4-5,1.5-8.4-2.9c-9.7-12.5-18.8-27.9-24.6-41.5c-1.6-3.7-1.4-3.6,1.5,1c16.6,26.1,41.6,36.3,49.7,20.3
		c3.9-7.8,4.3-17.8,1.3-35.3c-1.9-11.3-3.1-14.6-5.1-14.6c-1.9,0-2.4,1.5-1.3,4.1c1.7,4.2,4.3,20.9,4.4,28.3
		c0.1,18.9-7.3,25.3-21.3,18.5c-12.5-6.2-23.6-19.1-29.5-34.4c-1.3-3.3-2.4-4.4-3.7-3.7c-1.4,0.7-1.4,2,0,5.4
		c2.9,7.2-0.3,1.4-5.1-9.4c-5.9-13.2-10.7-26.2-15-40.5c-2.3-7.8-2.4-7.7,0.7-8.1c5.6-0.7,13.9-3.3,14.6-4.7
		c1.4-2.6-0.9-3.2-5.8-1.6c-11.1,3.7-29.3,3.5-42-0.3c-3.4-1-3.4-1.3,0.2-2.4c8.8-2.7,17.7-10,14.7-12.2c-1.1-0.8-1.7-0.5-4.8,2.2
		c-20.4,18.3-48.7-1.5-50.2-35.3c-0.7-14.5,4-22.1,20.6-33c10.6-7,14.5-11.4,21.9-24.4c10.9-19.3,30.2-31.7,53-33.8
		C190.3,88.4,197.8,88.5,198.2,88.9 M51.3,92.9c5,2.1,5.6,9.2,1.9,21.5c-1.6,5.3-0.9,4.9-8.1,4.2c-8.1-0.8-12.6-2.2-15.5-4.7
		C22.8,108,31.1,98,38,103.6c3.1,2.5,5.9,1.2,4.8-2.3C41.2,95.9,46.4,90.8,51.3,92.9 M296.6,114.2c-7.5,5-8.4,5.9-6.7,7.5
		c1.3,1.2,2.6,0.8,8.1-2.9c6.5-4.4,6.8-4.6,6.8-6C304.8,109.8,302.8,110.1,296.6,114.2 M301.4,129.3c-8.8,0.9-9.8,1.2-9.8,2.8
		c0,2.4,1.3,2.6,12.1,1.5c7.5-0.7,9.1-1.2,9.1-2.9C312.8,128.5,311.6,128.3,301.4,129.3 M291,141c-1.9,1.9-0.6,3,7.7,6.2
		c7.8,3,8.9,3.1,9.6,1.3c0.8-2.1,0.4-2.4-8.9-5.9C293.3,140.3,292,140,291,141 M159.8,174c-7,1.7-10.7,11.3-5.3,13.8
		c1.4,0.7,1.5,0.7,4.7-0.4c1.8-0.6,4.4-1.3,5.7-1.5c4.9-1,7-3,6.4-6.1C170.7,175.9,164.6,172.9,159.8,174 M308.1,231.2
		c7.6,2,13.6,5.2,25.1,13.1c4.3,3,8.8,6,10,6.7c2.7,1.6,2.8,2,0.3,2.2c-2.3,0.1-6.4-1.2-15.9-5.2c-29.2-12.3-36.7-11.4-56.4,6.9
		c-5.1,4.7-4.8,4.8-5.4-1.6l-0.2-2.6l2.6-3C280.7,233.2,294.5,227.5,308.1,231.2 M136.2,233c3.1,0.7,3.1,1,0.1,2.6
		c-17.8,9.6-33.7,22-45.6,35.6l-2.6,3l-1.1-0.7c-1.5-1-2.3-3-1.8-4.7c2-7.1,23.7-24.3,43.1-34.2C133,232.2,132.8,232.2,136.2,233
		 M154,235.5l2.6,0.2l1.6,5.5c1.8,6.2,4.3,14.4,5.5,17.6c0.4,1.2,1.1,3,1.5,4.2c2.6,7.4,13.9,34.1,17,40.1
		c3.5,6.9,7.1,14.4,7.1,14.8c0,0.3,0.1,0.6,0.3,0.7c0.5,0.2,4.5,7.3,4.5,8c0,0.3,0.2,0.7,0.5,0.8c0.3,0.1,1.1,1.3,1.8,2.5
		c2.3,4.1,5.9,9.5,9,13.5c2.5,3.2-0.4,7.4-0.6,7.4s-1,0.5-1.6,1c-0.6,0.6-1.4,1-1.8,1c-0.7,0-3.2,2.2-3.6,1.9l-2.6-1.1
		c-0.4-0.2-0.9-0.3-1-0.2c-0.4,0.4-2.1-1.8-2.1-2.8c0-0.5-0.2-1-0.5-1c-0.4,0-2.7-4.1-2.7-4.8c0-0.1-0.9-1.7-2-3.6
		c-1.3-2.2-1.9-3.6-1.8-4.1c0.1-0.4,0.1-0.7-0.2-0.6c-0.5,0.1-3-4.3-5.7-9.7c-0.9-1.9-1.8-3.8-2.1-4.2c-0.2-0.4-0.6-1.2-0.8-1.6
		s-0.5-1.1-0.7-1.4c-0.8-1.4-4.6-9.3-6.6-13.8c-1.2-2.6-2.5-5.5-2.9-6.4c-2.2-4.6-8.4-21.7-12.2-33.2c-1.9-5.7-4.6-15.4-6.6-23.2
		l-1.6-6.4l0.9-0.7C147.5,235.2,149.5,235,154,235.5 M141.2,238.9c0.9,2.2,2.8,10.8,2.4,11.2c-0.3,0.3-1.3-0.2-3.1-1.3
		c-1.5-0.9-4.2-2.4-6.1-3.2c-4.8-2-4.7-2.1,2.6-6.1C140.3,237.8,140.7,237.7,141.2,238.9 M307.4,244.8c4.6,1.2,22.8,8.5,23.9,9.6
		c0.2,0.2-1.3,1.2-3.7,2.5c-8.8,4.5-12.7,8.8-15.8,17.3c-1,2.7-1.2,2.6-4-2.1c-3.4-5.7-8.5-12.2-10.1-12.8c-3.5-1.4-3.2,1.7,0.8,7.1
		c4,5.3,7.4,10.5,7.7,11.7c0.3,1.2-0.2,1.2-4.7,0.1c-9.2-2.2-21.3,1-28,7.5c-3.5,3.4-3.3,3.8-4.7-7.9c-1.7-14-2-12.5,2.7-17.2
		C285,246.5,295.9,241.8,307.4,244.8 M129.2,247.6c7.2,2.3,16.2,8.2,17.3,11.3c0.3,0.9,1.9,5.7,3.4,10.5c1.6,4.9,4.1,12.2,5.6,16.4
		c3.4,9.1,3.4,8.4,0.3,9.3c-16.5,5-40.3,0.9-56.2-9.8c-3.5-2.3-8.9-7.1-8.9-7.8c0-2,15.5-17.1,24.6-24
		C125,246.3,125.1,246.3,129.2,247.6 M91.6,283.8c17,14.7,43.5,20.8,65.2,15c3.6-1,3.4-1.1,5.4,3.9c1.5,3.7,1.5,3.7,1.3,7.8
		l-0.2,4.1l-2.8,2.6c-6.3,5.7-12.2,15.1-16,25.1c-2.1,5.5-1.2,5.2-14.1,5.2c-21.2,0-35.9-4.3-52.2-15.2c-10.8-7.2-11.1-7.6-9.6-12.8
		c3.9-13.3,9.7-25.3,17.6-36C88,280.7,88,280.7,91.6,283.8 M172.1,324.1c6.6,13,16.1,30.9,18.3,34.2l2.1,3.3l-1.6,4.9
		c-1.6,4.8-2.8,10.3-3.7,16.5c-0.2,1.8-0.6,4.5-0.9,6.2c-1.3,8.9-0.9,24.1,0.8,32.3c2.9,14.3,20.8,22.2,54.6,24.1
		c8.4,0.5,8.3,0.4,3.6,3.1c-11.6,6.7-28.4,12.8-43.5,15.7c-8.7,1.7-9.1,1.4-7.3-4.6c2.7-8.9,2.6-9.3-3.2-10.7
		c-28.2-7-51.2-45.7-48.5-81.9c1.5-19.8,11.6-42,22.3-48.9C168.2,316.4,168.2,316.4,172.1,324.1 M71.1,331.9
		c19.2,14.1,36.4,19.5,60.9,19.2l9-0.1v1.4c0,0.8-0.5,3.6-1,6.2c-1.3,6.7-1.4,22.4-0.1,29.2c1,5.5,1.2,5.1-3.6,6.9
		c-19.2,7.5-40.1,5.9-60.6-4.5c-7.3-3.7-13.4-37.3-10.3-56.5C66.3,327.8,65.7,327.9,71.1,331.9 M361.4,342.5
		c-0.2,0.6-10.2,9.9-14.8,13.7c-7.6,6.4-14.8,11.4-22.3,15.3c-5.9,3.1-6.1,3.1-6.9,0.1c-0.9-3-1.6-4.4-3-5.9
		c-0.9-0.9-1.5-2.5-2.6-6.3c-1.6-5.7-1.6-5.8,1.2-5.9c7.3-0.1,25.5-4.1,38.6-8.6C360.7,341.9,361.7,341.7,361.4,342.5 M365.2,345.7
		c0,2.6-7.2,14.1-13.3,21.3c-3.1,3.6-3.4,3.6-4.5-0.6c-1.3-4.7-1.4-4.3,3.3-8.5c2.4-2.1,6.5-5.8,9.1-8.2
		C364.6,345.2,365.2,344.8,365.2,345.7 M343.1,365.3c0.5,0.6,1.2,3.7,1.5,6.8l0.3,2.3l-2.6,2.5c-5.4,5.2-21.3,17-23,17.1
		c-0.6,0-0.7-0.7-0.8-7.6l-0.1-7.7l5.3-2.6c5.6-2.8,11.6-6.3,15.9-9.5C342.5,364.6,342.5,364.6,343.1,365.3 M67.8,385.5
		c10.3,24.3,34.9,46.1,61.7,54.7c3.1,1,2.7,1.6-2.4,3.3c-6,2-12.5,2.2-17.6,0.4c-15.2-5.3-47.3-24.6-57.4-34.6c-4-4-3.9-4.4,0.9-5.4
		c4.3-0.8,5.4-1.2,7.6-2.8c3-2.1,3.4-3.4,4.4-12.1C65.9,381.6,66,381.4,67.8,385.5 M85.3,398.2c19.9,6.7,35.8,6.7,52.2,0.1
		c4.2-1.7,4.1-1.7,5.2,2.1c2.6,9,8,19.4,15,28.9c0.6,0.8,1,1.7,0.8,2c-0.9,1.4-10.8,5-17.8,6.4l-4.1,0.8l-5.9-2
		c-19.9-6.7-39.2-20.6-50.6-36.5C77,395.4,77,395.4,85.3,398.2 M255.6,398.7c1.3,1,1.4,6.9,0.3,13.3c-0.8,4.7-1,4.9-3.8,4.4
		c-5.2-1-5.5-1.6-4.7-8.2c0.3-2.6,0.6-5.3,0.6-6.1C248,398.2,252.3,396.3,255.6,398.7 M164.8,437.4c3.9,4,4,4-5.5,3.9
		c-11.9-0.1-13.3-0.6-7.3-2.9c2.1-0.8,4.8-2,6.2-2.7C161.5,434,161.4,434,164.8,437.4"/>
	<path id="path1" class="st1" d="M168,78.6c-0.9,3-2.1,9.4-1.8,9.7c0.1,0.1,1.8-0.3,3.7-0.9s5-1.4,6.9-1.9s3.7-0.9,4-1
		c1.5-0.5-7.8-8-10.5-8.4l-1.4-0.2L168,78.6 M184.8,89.6c-22.4,2.9-40.1,14.4-50.6,33c-7.8,13.8-12.1,18.6-22,24.9
		c-10.9,6.9-16.3,12.5-19.5,20.5c-1,2.5-1.3,15.5-0.4,20.2c0.6,3.3,5.2,14.4,7.5,18.3c10.1,16.7,28.6,19.9,41.9,7.3
		c3.2-3,6.6-2.1,5.6,1.5c-0.8,2.6-9.6,8.8-14.8,10.3c-2.1,0.6-2.1,1,0,1.6c13.2,3.6,31.5,3.5,41.3-0.2c4-1.5,5.3-1.2,6,1.2
		c0.7,2.2-4.1,4.6-12.7,6.2c-2.4,0.5-4.5,0.9-4.6,0.9c-1.2,0.8,13.1,40.3,18.4,50.7l0.8,1.5l1-1c2.1-2.1,3.6-1,5.8,4.4
		c8.2,20.2,26.6,36.9,39.3,35.7c7.7-0.7,11.5-12.7,9.2-28.9c-1.1-7.4-2.9-16.9-3.7-19.3c-1-3-0.7-4.5,1-5.1
		c3.5-1.2,5.2,3.2,7.7,20.6c4.6,31.2-6.4,45.3-27.3,35c-7-3.5-15-10.1-20.4-17c-1-1.3-1.9-2.3-2-2.2c-0.4,0.4,6.1,12.3,10.7,19.4
		c4.6,7.2,12.5,18,13.2,18c0.2,0,2.7-0.5,5.7-1.2c19.7-4.4,47.2-3.6,65.8,1.8c1.9,0.6,3.7,1,3.9,1c1.1,0-3.5-7.3-8.5-13.6
		C269,318,267.4,314,265.4,292c-0.3-3.9-0.9-9.1-1.2-11.6c-2.1-15.9-3.3-27.7-3.7-37.6c-0.2-4.9-0.6-11.5-0.8-14.5
		c-0.3-4.9-0.3-5.8,0.4-8.6c10.2-40.4,8.1-81.6-5.2-100.4c-6.2-8.8-27.5-24.4-33.3-24.4c-2.4,0-7.8,5.7-10.1,10.6
		c-2.8,6.1-6.5,8.1-11.9,6.6c-6.6-1.8-8.1-9.8-3.7-19.1c0.8-1.6,1.4-3.1,1.4-3.3C197.2,89.1,188.4,89.2,184.8,89.6 M234.7,118.4
		c5.2,3.7,4.8,10.7-0.7,13c-3.6,1.5-8.6-1.7-9.1-6C224.2,119.2,230,115,234.7,118.4 M242,135.2c1.1,1.1,1,2.6-0.1,3.4
		c-1.9,1.3-3.5,0.5-3.5-1.8C238.4,134.4,240.3,133.5,242,135.2 M166,173.7c8.9,3,8.3,10.8-1.1,13.1c-1.7,0.4-4.5,1.2-6.1,1.7
		c-4.9,1.5-7.3-0.3-7.3-5.2C151.6,176.2,159.1,171.3,166,173.7 M182.7,184c5.5,1.9,6.8,8.2,2.2,10.6c-8.2,4.2-15.1,2.6-15-3.5
		C169.9,184.7,175.7,181.6,182.7,184 M292.4,231.6c-6.7,1.8-14.7,7.1-21.9,14.6l-4.1,4.3l0.3,3.1c0.4,4,0.4,4,3.4,1.2
		c20.1-18.4,28.9-19.9,54-9.1c9,3.8,15.9,6.4,17.9,6.7c2.3,0.3,2.4,0.4-2.3-2.7c-2.1-1.4-6.6-4.5-10-6.8
		C314.3,232.3,302.9,228.9,292.4,231.6 M130.4,234.2c-1,0.6-3.5,1.9-5.6,3c-15.8,8.5-35.5,24.1-38.5,30.5c-1,2.2-0.9,2.8,0.4,4.3
		l1.2,1.3l1.7-2c10.6-12.4,28.1-26.5,43.7-35c4.2-2.3,4.3-2.7,0.8-3C132.6,233.2,131.8,233.4,130.4,234.2 M165.6,318.8
		c-6,3.6-14.2,16.6-18,28.2c-10.3,31.5-1.7,65.3,22.7,88.9c7.6,7.4,12.3,9.9,24.4,13.2c3,0.8,3.1,2.5,0.9,10
		c-1.5,5.2-1.5,5.2,0.4,5.2c2.2,0,13-2.2,17.5-3.6c12.7-3.9,20.2-6.9,28.4-11.1c5.3-2.8,5.4-2.8,1.2-3.1
		c-31.8-2.3-49.9-8.8-55.1-19.8c-4.9-10.6-3.7-42.8,2.4-60.9l1.4-4.3l-0.8-1.1c-1.7-2.3-4.1-6.5-7.5-13.1c-1.9-3.7-4.7-9-6.2-11.8
		c-2.6-4.8-7.1-13.6-8.4-16.3C168.1,317.8,167.5,317.7,165.6,318.8 M354.6,345.1c-12.8,4.5-29.4,8.4-38.9,9.1
		c-4.5,0.4-4.4,0.3-3.3,4.2c1.2,4.3,1.8,5.9,3,7.1c1.1,1.1,3,5.2,3,6.4c0,1.4,0.8,1.3,4.3-0.6c11.2-6,19.1-11.8,30.7-22.4
		c2-1.8,4.1-3.7,4.6-4.1C359.6,343.6,358.8,343.6,354.6,345.1 M66.3,385.8c-0.1,0.4-0.4,2.9-0.7,5.6c-0.9,9.1-3.5,11.9-12.5,13.4
		c-1.5,0.3-2.8,0.6-2.9,0.8C49.3,407,68.9,421.8,80,428c1,0.6,3.9,2.2,6.6,3.7c21.2,12,29.2,14.2,39.8,11c4.1-1.2,4.1-1.3,0.6-2.6
		c-10.8-3.9-26.1-12.7-33.6-19.4c-6.6-5.9-8.7-7.9-11.5-11.2c-6.6-7.8-8.8-11.1-12.8-19.2C67.2,386.6,66.4,385.3,66.3,385.8
		 M249.7,399.1c-0.9,0.9-1,1.4-1.6,7.9c-0.8,8-0.5,8.5,4.5,8.7l2.1,0.1l0.7-4c1.2-7.3,1.4-11,0.4-12.2
		C254.6,398.3,250.9,397.9,249.7,399.1"/>
	<path id="path3" class="st2" d="M296.6,244c-8.6,1.4-29,16.9-29,22c0,2.7,2.4,21.4,2.8,21.8c0.2,0.2,1.4-0.7,3.2-2.3
		c6.7-6.5,18.7-9.7,28-7.5c4.4,1.1,5,1,4.7-0.1c-0.4-1.2-3.8-6.4-7.7-11.7c-4-5.4-4.3-8.4-0.8-7.1c1.6,0.6,6.7,7.1,10.1,12.8
		c2.8,4.7,3,4.8,4,2.1c3.1-8.5,7-12.8,15.8-17.3c4.9-2.5,5.1-2.1-3.2-5.7C309.1,244.6,302.8,243,296.6,244"/>
	<path id="path4" class="st3" d="M151.1,15.4c-5.6,2-7.1,7.3-4.4,15.3c3.3,9.6,1.3,17.5-7.4,29.7c-10.9,15.2-12.4,18.8-12.8,30.8
		c-0.2,8.1,0.3,11.9,2.5,17.9c1.7,4.6,2,3.4-2.2,10.7c-7.4,13-9.2,14.9-21.2,22.7c-17.9,11.7-24.1,24.6-21.3,44.5
		c0.2,1.1,0.2-1.8,0.1-6.4c-0.2-12.3,0.4-15.1,5.3-22.5c4.4-6.7,9.7-11.5,19.5-17.5c7.6-4.7,11.3-9,18.4-21.4
		c3.7-6.5,3.6-5.6,1.4-11.3c-1.8-4.7-2.3-9.2-2.1-16.9c0.3-11.6,1.9-15.4,12.4-30c9-12.5,11-20.4,7.7-30.3c-3-9.1-0.8-14.4,6.5-15.5
		c2-0.3,2.1-0.3,0.7-0.4C153.3,14.8,151.9,15.1,151.1,15.4 M157.4,15.7c3.8,1,9.8,9,11.2,14.9c3,13-1.2,29.8-11.3,45.6
		c-5.2,8.1-7.3,12.7-7.3,16.2c0,2.1,0.5,2,5-0.6l3.6-2.1l0.7-4.8c1.8-12.3,4.1-16.1,9.9-16.1c5.1,0,10.3,3,16.4,9.4l3.6,3.7l6.1,0.1
		l6.1,0.1l2-1.5c4.1-3.1,10.5-5.5,16.9-6.3l3.1-0.4l-3.5,0.2c-5.5,0.3-10.6,2.1-16.1,5.7l-2.8,1.8l-5.8-0.1l-5.8-0.1l-3.8-3.9
		c-10.3-10.4-19.8-12.4-23.8-4.9c-0.9,1.7-2.5,8.4-3.1,12.5c-0.6,4.4-0.4,4.3-4.9,6.7c-3.7,2-4,1.8-3-2.3c1-3.7,2.9-7.5,6.7-13.2
		c11.8-17.7,15.7-38.6,9.5-51.1c-2.3-4.6-8.2-10.2-10.6-10.1C156.1,15.3,156.5,15.5,157.4,15.7 M152.8,22.4
		c-1.1,1.1-1.1,2.1,0.3,5.9c4.7,12.8,1.9,22.4-11.7,41.2c-8.7,11.9-10.8,26.4-5.6,37.7c1.2,2.7,0.9,2.7,5.4-1.5l3.8-3.6l-0.7-3
		c-1.8-8.3,0.1-15.2,7.2-26c8.8-13.3,12.7-26.1,11.4-37.5C161.9,27.7,155.7,19.5,152.8,22.4 M157.1,24c9.2,9.5,6.8,29.1-5.8,48.5
		c-7.7,11.8-9.4,18.2-7.4,26.7l0.6,2.6l-3.4,3.4c-4,4-4.2,4-5.6-0.3c-4.5-13.5-2.3-23.2,8.7-38.5c11.1-15.5,13.7-25.6,9.7-37.7
		C151.7,22.4,153.3,20.1,157.1,24 M260.1,57.7c-1,0.5-2.7,2-4,3.5c-5.6,6.5-10.8,9.6-19.5,11.6c-1,0.2-1.3,0.4-0.7,0.4
		c4.7,0.2,13.5-4.6,19.3-10.4c5.1-5.2,5.7-5.6,9.5-5.6c12.6,0,14.5,16.2,3.2,27c-6.6,6.3-11,8-22.5,8.4c-9.7,0.3-9.9,0.5-5.1,3.6
		c24,15.6,32.3,32.7,33.3,69l0.3,10.6l0.1-7.4c0.3-37.3-7.8-54.8-34.2-73.2c-2.5-1.7-2.2-1.8,5.8-2.2c13-0.5,20.9-4.4,26.9-13.2
		C280.6,68,271.6,51.9,260.1,57.7 M261.5,65.5c-1,1-2.7,2.9-3.7,4c-5.3,5.8-14.9,9.7-26,10.5c-14,1-17.7,1.8-22.9,4.8
		c-10.5,6.2-15.3,22.7-6.6,22.7c2.7,0,3.5-0.7,5.5-5.1c5.1-11,13-14.8,32.4-15.9c14.8-0.8,17.6-1.7,23.1-6.9
		c4.7-4.5,6.3-8.2,5.3-12.2C267.5,63.2,264.5,62.4,261.5,65.5 M266.5,64.8c3.5,2.8,2.1,9-3.1,14.2c-5.3,5.3-8.8,6.4-22,7
		c-20.3,0.9-28.6,4.8-34,16.1c-2,4.2-2.9,5.1-5.1,5.1c-7.3,0-4-14,4.8-20.6c5.1-3.7,10.6-5.2,21.5-5.8c15.2-0.9,24.2-4.6,31.3-12.9
		c1.6-1.9,3.1-3.5,3.4-3.6C264.4,63.8,265.5,64,266.5,64.8 M227.2,73.6l-3.8,0.2h3.4c1.9,0,4.5-0.1,5.8-0.3l2.4-0.3h-2
		C231.9,73.3,229.3,73.5,227.2,73.6 M168.2,76.1c-1.2,1.9-3.3,12.1-2.6,13c0.3,0.3,1.4,0.1,4.3-0.9c2.2-0.7,5.7-1.7,7.8-2.1
		c4.9-1,5-1.1,3-3.4C176.3,77.6,169.6,74,168.2,76.1 M174.3,78.2c3.4,2.2,7.3,6.1,6.5,6.4c-0.3,0.1-2.1,0.6-4,1
		c-1.9,0.5-5,1.3-6.9,1.9s-3.6,1-3.7,0.9c-0.3-0.3,0.9-6.7,1.8-9.7l0.8-2.7l1.4,0.2C171,76.3,172.8,77.2,174.3,78.2 M43.3,86.6
		c-2.5,1.2-5.4,3.8-6.8,6c-1,1.7-1,1.7-3.7,1.9c-7,0.5-12.8,6.7-13.1,13.8l-0.1,3.1l0.3-3c0.8-7.3,6.2-13,12.9-13.5
		c2.5-0.2,2.8-0.3,3.6-1.4c7.1-10.4,20.7-10.2,24.7,0.4c3,7.8-1.2,29.8-6.2,31.9c-1,0.4-1.1,0.5-0.4,0.6c5.1,0.1,10.2-24,7-32.6
		C58.9,86.7,50.3,83.3,43.3,86.6 M186.4,88.8c-22.7,2.1-42.1,14.5-53,33.8c-7.4,13.1-11.3,17.5-21.9,24.4
		C95,157.9,90.3,165.5,91,180c0.4,8.8,1.4,12.5,6,22.5c9,19.8,29.8,25.7,44.2,12.7c3.1-2.8,3.6-3,4.8-2.2c3.1,2.1-5.8,9.5-14.7,12.2
		c-3.6,1.1-3.6,1.3-0.2,2.4c12.6,3.9,30.9,4,42,0.3c4.8-1.6,7.1-0.9,5.8,1.6c-0.7,1.3-9,4-14.6,4.7c-3.1,0.4-3.1,0.3-0.7,8.1
		c4.3,14.3,9.1,27.3,15,40.5c4.8,10.8,8,16.6,5.1,9.4c-1.3-3.4-1.3-4.7,0-5.4c1.3-0.7,2.5,0.4,3.7,3.7c5.9,15.3,17,28.2,29.5,34.4
		c13.9,6.9,21.4,0.4,21.3-18.5c0-7.4-2.6-24.2-4.4-28.3c-1.1-2.5-0.6-4.1,1.3-4.1c4.7,0,8.9,32.2,5.8,44.5
		c-5.7,22.2-31.9,15.1-51-13.9c-3.6-5.4-3.3-4.2,0.9,4.4c6.9,14,13,23.9,21.6,35.1c3.4,4.4,2.9,4.2,8.4,2.9
		c18.9-4.7,49.6-3.8,67.6,1.9c2.2,0.7,4.1,1.2,4.2,1c0.8-0.8-4.3-8.9-10.5-16.7c-11.9-15-13.8-19.5-15.5-36.8
		c-1.1-11.2-1.8-17.7-2.4-22c-1.6-11.4-2.6-22.2-3.2-34.6c-0.1-2.6-0.4-7.6-0.6-11.1c-0.3-5.3-0.3-6.6,0.2-8.4
		c3.9-13.3,7.1-42.3,6.4-57.9c-1.3-31.3-8.6-45.9-30.2-60.4c-4.4-3-14.1-8-15.4-8c-2.5,0-8,5.6-10.5,10.8c-2.6,5.6-4.2,6.8-8.5,6.8
		c-8.5,0-11-8.5-5.6-19.2c0.9-1.8,1.5-3.4,1.4-3.5C197.8,88.5,190.3,88.4,186.4,88.8 M197.2,89.6c0,0.2-0.6,1.7-1.4,3.3
		c-4.4,9.4-2.9,17.3,3.7,19.1c5.5,1.5,9.1-0.5,11.9-6.6c2.3-4.9,7.7-10.6,10.1-10.6c5.9,0,27.1,15.6,33.3,24.4
		c13.3,18.8,15.4,60,5.2,100.4c-0.7,2.8-0.7,3.7-0.4,8.6c0.2,3,0.6,9.6,0.8,14.5c0.5,9.9,1.7,21.7,3.7,37.6
		c0.3,2.5,0.9,7.8,1.2,11.6c2,22,3.6,26,17.4,43.2c5,6.3,9.6,13.6,8.5,13.6c-0.2,0-1.9-0.5-3.9-1c-18.5-5.4-46.1-6.1-65.8-1.8
		c-2.9,0.6-5.5,1.2-5.7,1.2c-0.7,0-8.6-10.8-13.2-18c-4.6-7.1-11.1-19-10.7-19.4c0.1-0.1,1,0.9,2,2.2c5.4,6.9,13.4,13.6,20.4,17
		c20.9,10.3,31.9-3.8,27.3-35c-2.6-17.4-4.2-21.8-7.7-20.6c-1.7,0.6-2,2.1-1,5.1c0.8,2.4,2.7,11.9,3.7,19.3
		c2.3,16.2-1.5,28.2-9.2,28.9c-12.7,1.1-31-15.6-39.3-35.7c-2.2-5.4-3.7-6.5-5.8-4.4l-1,1l-0.8-1.5c-5.2-10.3-19.6-49.8-18.4-50.7
		c0.1,0,2.1-0.5,4.6-0.9c8.6-1.7,13.4-4,12.7-6.2c-0.7-2.4-2.1-2.7-6-1.2c-9.8,3.7-28,3.8-41.3,0.2c-2.1-0.6-2.1-1,0-1.6
		c5.3-1.6,14.1-7.7,14.8-10.3c1-3.5-2.5-4.5-5.6-1.5c-13.3,12.6-31.8,9.3-41.9-7.3c-9.2-15.2-11-33.3-4.3-43.9
		c3.8-6.1,7.3-9.3,16.6-15.1c9.9-6.2,14.2-11.1,22-24.9c10.5-18.5,28.2-30.1,50.6-33C188.4,89.2,197.2,89.1,197.2,89.6 M295.4,114.5
		c-6.5,4.5-7.3,5.4-6.1,7.2c1.2,1.9,2.6,1.5,9.1-2.8c6.4-4.2,6.8-4.6,6.8-6.2C305.2,109.1,302.6,109.6,295.4,114.5 M304.3,111.3
		c1.7,1.7,0.8,2.7-6.3,7.5c-6.1,4.1-8.8,4.6-8.8,1.6C289.2,118,302.8,109.8,304.3,111.3 M20,112.2c-0.1,4.8,7.7,10.9,16,12.6
		c3.8,0.8,17.1,2.2,17.4,1.8c0.2-0.2-1-0.3-10.1-1.2c-12.8-1.3-20.7-5.5-22.7-12.1C20.3,112.3,20,111.8,20,112.2 M305.4,128.6
		c-4.5,0.6-2.9,0.8,2,0.2c3.7-0.4,4.9-0.1,5.3,1.4c0.5,2.2-0.8,2.7-8.9,3.5c-10.9,1-12.2,0.9-12.2-1.6c0-1.5,1.2-2,5.5-2.3
		c2.3-0.2,4-0.4,3.9-0.5c-0.6-0.6-8.4,0.4-9.1,1.1c-1.9,1.9-0.1,4.4,3.3,4.3c10.4-0.1,18-1.7,18-4
		C313.2,128.5,311.1,127.9,305.4,128.6 M293,140.4c2.5,0.5,13.9,5,14.9,5.9c0.5,0.4,0.9,0.7,0.9,0.5c0-1.1-13.9-6.9-16.3-6.8
		C291.6,140.1,291.7,140.2,293,140.4 M290.4,141.2c-1.3,2.4,0,3.3,9.2,6.8c6.5,2.4,7,2.5,7.9,2s2-2.4,1.5-2.4c-0.1,0-0.4,0.4-0.6,1
		c-0.7,1.8-1.8,1.6-9.1-1.2c-9.2-3.5-9.7-3.9-8.5-6.2c0.2-0.5,0.4-0.8,0.2-0.8C290.9,140.4,290.6,140.8,290.4,141.2 M158.8,173.6
		c-7,2.1-10.1,12.4-4.5,15c1.5,0.7,1.6,0.7,4.5-0.2c1.7-0.5,4.4-1.2,6.1-1.7c3.7-0.9,5.1-1.6,6.2-3
		C175.4,178.4,166.7,171.2,158.8,173.6 M166.9,174.9c7.1,3,5.9,9.5-1.9,11.1c-1.3,0.3-3.9,0.9-5.7,1.5c-5.7,1.8-8.7-1.2-6.7-6.8
		C154.7,174.7,160.7,172.2,166.9,174.9 M273.1,181.8c-0.2,3.3-0.2,6-0.1,6.1c0.2,0.2,0.8-9.4,0.6-10.9
		C273.5,176.3,273.2,178.5,273.1,181.8 M174.6,183.7c-5.2,1.8-6.5,9.2-2.1,12.4c2.9,2.1,12.3-0.1,14.3-3.4
		C190.2,187.1,182.1,181.1,174.6,183.7 M182.6,185c6.9,2.8,4.8,9-3.6,10.8c-5.3,1.1-8.2-0.7-8.2-5.1
		C170.8,185.5,176.8,182.6,182.6,185 M272.5,189.7c-0.1,2.6-1.7,14-2.7,19.3c-1.3,7.2-1.5,8.4-1,6.8c1.2-3.9,4.2-23.9,3.9-26.3
		C272.5,188.2,272.5,188.2,272.5,189.7 M84.8,189.8c0,1.8,3.7,11.6,6.6,17.5c4.7,9.5,12.5,16.7,22,20.3c1.8,0.7,3.8,1.7,4.6,2.4
		l1.4,1.2l-2.5,1.5c-30.9,18.8-44,34.2-37,43.6c1.2,1.7,1.2,2-0.5,4.3c-14.5,20.2-22.1,44.5-21.7,68.8l0.1,4.8l0.1-4
		c0.7-28.5,7.1-48.5,21.8-69.3l2.1-2.9l-0.9-1.1c-2.9-3.5-3.3-8.3-1-12.8c3.5-6.9,19.7-20.4,37.8-31.5c3.4-2.1,3.6-1.9-7.3-7.1
		c-11.7-5.6-19.4-16.1-24.5-33.4C85.3,190.5,84.8,189.4,84.8,189.8 M267.6,219.7c-0.5,2.5-0.6,15.6-0.2,17.2c0.4,1.1,0.8,0.9,4.3-2
		c17.9-14.9,36.5-15.3,58.1-1c11.7,7.7,19.1,13.1,21.9,15.8l3.1,3v2.5c0,4.6-2.2,6-8.3,5.5c-9.4-0.8-14.4,0.6-21.3,5.8
		c-3.6,2.7-7.2,8.6-7.2,11.5c0,0.4,0.3-0.3,0.7-1.5c3.1-9.6,14.8-17,24.6-15.6c8.1,1.2,11.8-0.5,11.8-5.5c0-4.2-1.8-5.8-16.9-16.1
		c-19.6-13.4-25.3-15.7-38.7-15.7c-11.5,0-17.8,2.4-28,11c-3.3,2.7-3.4,2.8-3.8,1.2c-0.5-2.1-0.4-13,0.1-15.6
		c0.3-1.4,0.4-2.6,0.3-2.7C268.2,217.3,267.9,218.3,267.6,219.7 M292.4,230.8c-7.7,2.1-17.2,8.6-24.3,16.7l-2.6,3l0.2,2.6
		c0.6,6.4,0.3,6.3,5.4,1.6c19.7-18.2,27.2-19.1,56.4-6.9c9.5,4,13.7,5.4,15.9,5.2c2.4-0.2,2.4-0.6-0.3-2.2c-1.2-0.7-5.7-3.7-10-6.7
		C315.3,231.8,303.3,227.9,292.4,230.8 M305.9,231.4c7.6,1.6,13.8,4.5,23.7,11.3c3.4,2.3,7.9,5.4,10,6.8c4.7,3.2,4.6,3,2.3,2.7
		c-2.1-0.3-8.9-2.8-17.9-6.7c-25.1-10.7-33.9-9.2-54,9.1c-3,2.8-3,2.8-3.4-1.2l-0.3-3.1l4.1-4.3
		C282.5,233.7,293.9,228.9,305.9,231.4 M128.3,234.6c-19.3,9.8-41,27.1-43.1,34.2c-0.5,1.7,0.3,3.7,1.8,4.7l1.1,0.7l2.6-3
		c11.9-13.6,27.8-26,45.6-35.6c3-1.6,3-2-0.1-2.6C132.8,232.2,133,232.2,128.3,234.6 M136.6,233.9c0.5,0.3-0.4,0.9-3.3,2.5
		c-15.6,8.5-33.1,22.6-43.7,35l-1.7,2l-1.2-1.3c-1.4-1.5-1.4-2.1-0.4-4.3c3-6.5,22.6-22.1,38.5-30.5c2.1-1.1,4.6-2.5,5.6-3
		C132.2,233.2,135.1,233,136.6,233.9 M146.6,235.8c-1.2,0.9-0.1,5.7,5.5,24.8c2.3,7.6,5,15.5,5.6,16c0.3,0.2,0.5,0.7,0.5,1
		c0,1,0.5,2.8,1.8,6.3c2,5.5,5.3,13.8,6.1,15.5c0.4,0.9,1.7,3.8,2.9,6.4c4.2,9.2,6.3,13.4,6.7,13.4c0.2,0,0.4,0.4,0.4,0.9
		c0,1,0.9,2.4,1.3,2c0.1-0.1,0.3,0,0.3,0.4s0.4,1.1,0.8,1.6c0.4,0.6,0.8,1.2,0.7,1.4c-0.2,0.7,0.6,2.8,1.6,4.5
		c0.6,1,1.6,2.9,2.3,4.2c0.7,1.3,1.5,2.3,1.8,2.3c0.3-0.1,0.4,0.1,0.2,0.5c-0.5,1.2,1.6,4.3,2.2,3.3c0.2-0.3,0.3,0.1,0.3,0.8
		c0,0.8,0.2,1.4,0.6,1.5c0.4,0.1,0.6,0.7,0.6,1.5c0,0.7,0.2,1.5,0.5,1.8s0.5,0.6,0.5,0.8c0.2,1,1.2,2.9,1.6,2.9c0.3,0,0.5,0.4,0.5,1
		c0,1,1.7,3.2,2.1,2.8c0.1-0.1,0.6,0,1,0.2c1,0.5,2.5,1,2.6,1.1c0.4,0.4,2.9-1.9,3.6-1.9c0.4,0,1.2-0.4,1.7-0.9
		c0.6-0.5,2-1.2,3.2-1.6c2.7-0.8,1.5-3.8-0.9-6.9c-1.3-1.6-2.7-3.7-3.3-4.6c-0.5-0.9-1.7-2.3-2.5-3.2c-0.8-0.9-1.5-1.8-1.5-2
		s-0.2-0.4-0.4-0.4s-0.3-0.2-0.2-0.4c0.3-0.5-2.1-5.3-2.8-5.5c-0.3-0.1-0.6-0.4-0.6-0.7c0-0.6-4-8-4.5-8.1c-0.2-0.1-0.3-0.4-0.3-0.7
		c0-1.2-2.9-6.1-3.5-5.9c-0.4,0.2-0.5,0-0.4-0.8c0.1-0.7-0.2-2-1-3.5c-2.8-5.6-4.7-9.9-6.2-13.1c-0.8-1.9-1.7-3.7-2-4
		s-0.5-0.8-0.5-1.1c0-0.3-0.4-0.8-0.8-1.3s-0.8-1.2-0.8-1.6c0-0.5-0.3-1.1-0.6-1.4s-0.6-1.1-0.6-1.8c0-0.7-1.2-4.1-2.7-7.7
		s-3.1-7.5-3.6-8.9c-1.3-3.7-2-5.2-2.7-5.8c-0.3-0.3-0.5-0.7-0.4-0.8c0.2-0.4-0.5-3.4-2.4-9.3c-0.8-2.5-2.1-6.7-2.8-9.5
		c-0.8-2.8-1.6-5.1-1.7-5.3C156,235.4,147.3,235.4,146.6,235.8 M137,239.5c-7.3,4-7.3,4.1-2.6,6.1c1.9,0.8,4.6,2.2,6.1,3.2
		c3.7,2.3,3.8,2.1,2.3-4C140.9,237,141.2,237.2,137,239.5 M142,243.7c1.7,6.5,2,6.3-4.1,3.2c-2.9-1.5-5.6-2.8-5.9-2.9
		c-0.8-0.3,0.3-1.1,4.8-3.6C140.8,238.1,140.6,237.9,142,243.7 M122.1,248.7c-10.3,7-21.5,16.9-28.6,25.2c-3.4,4-3.4,3.5,0,6.7
		c15,13.9,43.1,20.5,62.3,14.6c3.1-0.9,3.1-0.2-0.3-9.3c-1.5-4.1-4.1-11.5-5.6-16.4c-1.6-4.9-3.1-9.6-3.4-10.5
		c-1.1-3.1-10.1-9-17.3-11.3C125.7,246.5,125.2,246.6,122.1,248.7 M130.2,248.5c3.2,1.1,6.6,2.8,10,5.1c4.8,3.3,5.5,4.1,6.7,8.2
		c1.6,5.3,6.7,20.4,9,26.4c2.3,6.1,2.4,5.8-2,7c-16.5,4.2-38.6,0.1-53.7-10.1c-3.9-2.6-8.6-6.7-8.6-7.5c0-2.1,14.6-16.5,23.8-23.5
		C125.1,246.8,125.1,246.8,130.2,248.5 M158.5,275.6c-0.1,0.4-0.4,0.8-0.5,0.8s-0.2-0.4-0.1-0.8c0.1-0.4,0.4-0.8,0.5-0.8
		S158.6,275.2,158.5,275.6 M317.7,281.6c0,1.7,0.2,3.9,0.5,5c1.6,5.2,0.3,8.8-3.4,9.4c-1.7,0.3-1.7,0.3-0.4,0.3
		c3.8,0.1,6.1-4.7,4.4-9c-0.2-0.6-0.6-2.8-0.7-4.9l-0.3-3.8L317.7,281.6 M86,283.4c-7.9,10.7-13.7,22.6-17.6,36
		c-1.5,5.2-1.2,5.6,9.6,12.8c16.3,10.9,31,15.2,52.2,15.2c13,0,12,0.3,14.1-5.2c3.8-10,9.8-19.4,16-25.1l2.8-2.6l0.2-4.1
		c0.2-4,0.2-4.1-1.3-7.8c-2.1-5-1.9-4.9-5.4-3.9c-21.7,5.9-48.2-0.2-65.2-15C88,280.7,88,280.7,86,283.4 M91.1,284
		c16.2,14.5,42.9,20.9,64.6,15.6c4.3-1.1,4.1-1.2,5.6,2.2c1.8,4.2,1.9,4.8,1.6,8.7l-0.3,3.6l-3.4,3.5c-6.6,6.6-12.3,15.8-15.6,25.3
		c-1.3,3.7-1.2,3.6-7.1,4.1c-21.4,1.6-40.2-3.3-58-15c-8.1-5.3-10.7-7.7-10.4-9.5c1.6-9.8,12.5-32.6,19.2-39.9
		C88.3,281.4,87.9,281.2,91.1,284 M291.4,284.3c-8.5,1.9-13.7,5.5-16.5,11.3c-1.7,3.4-1.6,3.5,1.8,6.1c11,8.4,26.5,28.3,32,41.2
		c2.1,4.8,1.6,4.6,7.4,3.8c11.8-1.6,20.2-3.6,35.4-8.7c13.2-4.4,15.9-4.5,19.2-1.2c6,6.1-2.9,24-20.6,41.6
		c-7.6,7.6-12.6,11.7-23.4,19c-4.2,2.8-6.3,4.5-6.4,5.1c-0.1,0.5-0.5,2.7-0.8,4.9c-1.9,12.5-6.9,27.9-9.9,30.4
		c-3.6,3-9.6,5.1-20.1,7c-2.4,0.4-4,0.8-3.6,0.8c5.9,0.3,19.8-4,23.7-7.4c3.4-2.9,7.8-16.2,10.2-30.6c0.5-3.1,1-5.6,1.1-5.7
		s1.9-1.3,4-2.7c34.9-23.3,57.5-56,44.4-64.1c-2.9-1.8-6.3-1.3-17.6,2.4c-15.1,5-24.1,7.2-35.4,8.7c-5.7,0.7-5.2,1-7.6-4.2
		c-6.1-13.5-20-31.4-31.3-40.1c-3.9-3-3.9-3.8-0.6-9.1c6.8-10.6,29.1-10.8,32.6-0.3c0.6,1.8,2.1,3.6,3.1,3.6c0.2,0,0-0.3-0.6-0.7
		c-1.3-0.9-1.8-1.6-2.4-3.4C308.1,286.8,298.4,282.7,291.4,284.3 M170.1,299.9c0.3,1.4-0.2,3.3-0.8,2.9c-0.4-0.2-0.5-0.8-0.3-2
		C169.3,299.1,169.8,298.7,170.1,299.9 M165.2,318.3c-10.8,6.9-20.9,29.1-22.3,48.9c-2.7,36.2,20.3,74.9,48.5,81.9
		c5.8,1.4,5.9,1.8,3.2,10.7c-1.8,6-1.5,6.3,7.3,4.6c15.1-2.9,31.9-8.9,43.5-15.7c4.7-2.7,4.8-2.6-3.6-3.1
		c-33.8-1.9-51.6-9.8-54.6-24.1c-1.7-8.1-2-23.3-0.8-32.3c0.2-1.7,0.6-4.4,0.9-6.2c0.8-6.2,2-11.6,3.7-16.5l1.6-4.9l-2.1-3.3
		c-2.1-3.3-11.7-21.2-18.3-34.2C168.2,316.4,168.2,316.4,165.2,318.3 M168.8,319.3c1.3,2.7,5.8,11.5,8.4,16.3
		c1.5,2.8,4.3,8,6.2,11.8c3.4,6.6,5.8,10.8,7.5,13.1l0.8,1.1l-1.4,4.3c-6.1,18.1-7.3,50.3-2.4,60.9c5.1,11,23.3,17.6,55.1,19.8
		c4.2,0.3,4.2,0.3-1.2,3.1c-8.2,4.2-15.7,7.1-28.4,11.1c-4.5,1.4-15.3,3.6-17.5,3.6c-1.9,0-1.9,0-0.4-5.2c2.2-7.5,2.1-9.2-0.9-10
		c-12.1-3.2-16.8-5.8-24.4-13.2c-24.3-23.6-32.9-57.4-22.7-88.9C152.7,331.3,166.1,313.7,168.8,319.3 M66.2,329.2
		c-1.6,2.6-2.2,25-0.9,33c2.3,13.8,6.9,26.3,10.3,28c20.6,10.4,41.5,12,60.6,4.5c4.8-1.9,4.6-1.5,3.6-6.9
		c-1.3-6.8-1.2-22.5,0.1-29.2c0.5-2.6,1-5.4,1-6.2V351l-9,0.1c-24.5,0.3-41.6-5.1-60.9-19.2C66.7,328.6,66.6,328.6,66.2,329.2
		 M71.2,332.6c18.3,13.6,35.4,19.1,59.9,19h9.7l-0.2,0.9c-2.3,9.1-2.9,25.6-1.3,35c0.9,5.5,1.2,5.1-4.7,7.3
		c-17.8,6.7-36.2,5.3-57.6-4.4c-8.6-3.9-14.6-35.1-11-57.9C66.6,329,66.3,329,71.2,332.6 M351.6,345c-13.1,4.5-31.3,8.5-38.6,8.6
		c-2.9,0-2.9,0.1-1.2,5.9c1.1,3.9,1.8,5.4,2.6,6.3c1.4,1.5,2.2,3,3,5.9c0.9,2.9,1,2.9,6.9-0.1c10.2-5.3,17.8-11,31-23.1
		C363.7,340.7,363.8,340.9,351.6,345 M358,344.9c-0.5,0.4-2.6,2.3-4.6,4.1c-11.5,10.7-19.5,16.5-30.7,22.4c-3.5,1.9-4.3,2-4.3,0.6
		c0-1.2-1.9-5.3-3-6.4c-1.2-1.2-1.9-2.8-3-7.1c-1.1-4-1.2-3.8,3.3-4.2c9.5-0.8,26.1-4.7,38.9-9.1C358.8,343.6,359.6,343.6,358,344.9
		 M359.8,349.7c-2.6,2.5-6.7,6.2-9.1,8.2c-2.4,2.1-4.3,4.1-4.3,4.4c0.1,1.8,1.9,7.5,2.5,7.5c1.8,0,11.1-12.8,14.6-20
		C366.4,343.8,366.1,343.8,359.8,349.7 M362.9,350.1c-2.4,5.2-12.5,19.1-13.9,19.1c-0.2,0-0.8-1.6-1.3-3.5l-0.9-3.5l1.7-1.6
		C364.5,345.9,365,345.5,362.9,350.1 M58.1,356.6c-0.1,2.6,0.8,9.1,1.8,13.8c0.6,2.9,0.6,3.2-0.2,7.2c-0.5,2.3-0.9,5.4-1,6.8
		l-0.2,2.6l0.4-2.6c0.2-1.4,0.7-4,1.1-5.8c0.9-4.1,0.9-5.7-0.2-11.7c-0.5-2.7-1-6.6-1.2-8.8C58.2,354.9,58.1,354.7,58.1,356.6
		 M339.6,366.7c-4.4,3.2-10.3,6.8-15.9,9.5l-5.3,2.6l0.1,7.7c0.1,6.9,0.2,7.6,0.8,7.6c1.7-0.1,17.6-12,23-17.1l2.6-2.5l-0.3-2.3
		C343.8,364.4,343.4,364,339.6,366.7 M343.2,367.1c0.3,0.8,0.5,2.9,0.5,4.7v3.2l-3.9,3.5c-5.5,4.9-19.3,15.1-20.5,15.1
		c-0.2,0-0.4-2.8-0.4-7.2v-7.2l5.5-2.8c5.4-2.8,11.3-6.3,15.5-9.3C342.6,365.3,342.6,365.3,343.2,367.1 M65.8,383.1
		c-0.1,0.2-0.5,2.8-0.8,5.9c-1,8.8-1.4,10-4.4,12.1c-2.2,1.6-3.3,2-7.6,2.8c-4.8,0.9-4.9,1.4-0.9,5.4c10.1,10,42.2,29.3,57.4,34.6
		c5.1,1.8,11.6,1.6,17.6-0.4c5.1-1.7,5.5-2.3,2.4-3.3c-26.9-8.6-51.5-30.4-61.7-54.7C66.7,382.9,66.3,382.4,65.8,383.1 M73.2,398
		c3.5,5.6,10.6,14.2,15.2,18.4c1.8,1.6,4.1,3.7,4.9,4.4c7.4,6.6,22.8,15.5,33.6,19.4c3.5,1.3,3.5,1.3-0.6,2.6
		c-10.5,3.2-18.5,1-39.8-11c-2.6-1.5-5.6-3.2-6.6-3.7c-11.1-6.2-30.7-21-29.8-22.4c0.1-0.2,1.4-0.5,2.9-0.8
		c9-1.5,11.6-4.3,12.5-13.4c0.7-7.1,0.5-7,3.6-1C70.6,393.4,72.4,396.8,73.2,398 M57.8,390.2c-0.5,5.3-1.4,6.1-8,7.2
		c-7.1,1.1-9.9,6.1-7,11.9C45.7,415,62,427.1,81.2,438c27,15.3,35.3,16.9,52.9,10.5l6-2.2l4.1,0.7c3.1,0.5,6.9,0.7,15.9,0.8
		l11.8,0.1l1.9,1.3c2.6,1.8,8.2,4.5,11.5,5.6c3.1,1,3.2,1.3,1.9,4.9c-1,2.7-1.4,5.5-0.8,5.5c0.2,0,0.4-0.8,0.4-1.7s0.4-2.9,1-4.5
		c1.2-3.5,1.2-3.5-2.1-4.6s-9.4-4-11.9-5.7l-1.8-1.3l-11.8-0.1c-9.1-0.1-12.8-0.2-16-0.8l-4.1-0.7l-5.7,2.1c-13.8,5-21.1,5-32.6-0.1
		c-23.2-10.2-52.3-29.4-58.1-38.3c-3.5-5.4-0.6-11,6.2-11.8c6.4-0.8,8-2.2,8.4-7c0.2-1.8,0.2-3.3,0.1-3.4
		C58.2,387.3,58,388.5,57.8,390.2 M78.4,396.6c0,1.8,9,12.6,15.2,18c11,9.8,23.9,17.3,37.2,21.8l5.9,2l4.1-0.8
		c7-1.4,16.9-5,17.8-6.4c0.2-0.3-0.2-1.1-0.8-2c-7.1-9.6-12.4-19.9-15-28.9c-1.1-3.8-1-3.7-5.2-2.1c-16.5,6.7-32.4,6.6-52.2-0.1
		C78,395.7,78.4,395.8,78.4,396.6 M84.3,398.4c19.5,7,37.5,7,53.9,0.2c3.1-1.3,3.2-1.2,4.4,2.9c2.5,8.1,7.3,17.6,12.6,25.1
		c1.5,2.1,2.8,4.1,2.8,4.3c0,1.5-16.2,6.8-20.9,6.8c-2.3,0-11.7-3.5-18.6-6.9c-14.6-7.2-27.8-17.8-36.5-29.4
		C78,396.1,78,396.1,84.3,398.4 M250.2,398.1c-1.4,0.6-2.2,2.1-2.2,4c0,0.7-0.3,3.4-0.6,6.1c-0.9,6.7-0.6,7.2,4.7,8.2
		c2.8,0.5,2.9,0.3,3.8-4.4C257.9,400.5,255.8,395.6,250.2,398.1 M255.7,399.6c0.9,1.1,0.8,4.9-0.4,12.2l-0.7,4l-2.1-0.1
		c-5-0.2-5.2-0.7-4.5-8.7c0.6-6.5,0.7-7,1.6-7.9C250.9,397.9,254.6,398.3,255.7,399.6 M158.2,435.7c-1.3,0.7-4.1,1.9-6.2,2.7
		c-6,2.3-4.6,2.9,7.3,2.9c9.5,0,9.4,0.1,5.5-3.9C161.4,434,161.5,434,158.2,435.7 M164.3,437.5c3.1,3.3,3.2,3.3-4.9,3.3
		c-10.5,0-11.2-0.3-5.7-2.5c2-0.8,4.5-1.9,5.5-2.5C161.6,434.5,161.5,434.4,164.3,437.5 M278,446.3c-2.3,0.3-6.7,0.8-9.8,1.1
		c-3.1,0.3-4.7,0.6-3.6,0.6c1.9,0,14.4-1.3,18.4-1.9C286.5,445.4,282.7,445.6,278,446.3 M255.9,449.9c-9.6,7.1-23.5,13.3-41.3,18.5
		c-1.5,0.4-2.2,0.7-1.4,0.6c1.8-0.3,12.5-3.6,17.8-5.6c6.2-2.3,17.2-7.9,22.8-11.6c4.2-2.8,5.4-3.4,6.9-3.5l1.9-0.1l-2.1-0.1
		C258.7,448,258.3,448.2,255.9,449.9 M186.4,466.6c-0.2,5.4,9.6,6.9,22.6,3.5c4.1-1.1,2.7-1-2.4,0.2c-11.3,2.6-18.7,1.3-19.8-3.4
		C186.5,465.5,186.5,465.4,186.4,466.6"/>
	<path id="path5" class="st4" d="M149.8,14.9c-5.3,2.5-6.9,9.2-4,16.3c3.8,9.1,0.8,18.3-11,33.6c-6.7,8.7-9.3,16.5-9.2,28
		c0,4.1,0.2,7.8,0.3,8.3c0.1,0.5,0.3-3.1,0.3-8c0-13.8,1.4-17.5,11.9-31.9c9.4-12.8,11.5-20.7,8.1-30.2c-5-14.3,6.9-22.8,16.9-12
		c11.3,12.1,9.3,36.5-4.8,57.3c-4.5,6.7-8.4,15.3-7.3,16.3c0.4,0.4,6.7-3.2,6.9-3.8c0.1-0.3,0.3-1.7,0.4-3l0.2-2.4l-0.6,2.5
		c-0.3,1.4-0.8,2.8-1,3.1c-0.6,0.7-4.9,3-5.1,2.8c-0.9-0.9,1.9-7.2,5.6-13c2.2-3.5,2.9-3.7,1.8-0.5c-0.3,1-0.6,2.6-0.6,3.5
		c0,1.3,0.1,1.4,0.2,0.4c0.3-1.9,2.1-8.7,2.7-9.8c4-7.7,14.3-5.5,24.9,5.4l3.4,3.4h5.6h5.6l1.8-1.2c5-3.4,11.3-5.7,17.1-6.4l3.5-0.4
		l-4,0.2c-5.6,0.3-10.1,1.9-16.6,6l-2.2,1.4h-5.4h-5.4l-1.5-1.5c-0.8-0.8-2.1-2.2-2.9-3.1c-2.2-2.4-5.4-4.8-8.9-6.7l-3.2-1.7h-4.7
		h-4.7l0.8-2c0.4-1.1,1-2.3,1.2-2.7c3.8-7.2,5.8-25.3,3.7-33.5C166.8,18.4,157.2,11.4,149.8,14.9 M153.5,23.1
		c-0.5,0.5-0.2,2.3,1,5.9c3.6,10.2,1,22.3-7.1,33.6c-14,19.6-16.3,28.4-11.4,42.5c1.1,3.2,1.1,3.2,4.7-0.4l3-3l-0.5-2.5
		c-1.8-10-0.4-14.9,8.4-28.3c10.8-16.4,13.5-34.8,6.5-44.6C156,23.2,154.4,22.1,153.5,23.1 M264.8,56.4c13.5,1.2,15.7,16.9,3.9,28.3
		c-6.6,6.4-11.6,8.4-22.3,8.8c-8,0.3-8,0.3-4.2,3c18.3,12.8,26.4,25,30.3,45.8c0.4,2.3,0.6,2.6,0.4,1.1c-1.5-17.7-12.7-35.3-30-47
		c-2.7-1.9-2-2.2,4.9-2.5c18.7-0.9,32.2-15.4,27.9-30c-1.3-4.6-5.5-7.6-10.8-7.7l-3.7-0.1L264.8,56.4 M259.6,56.8
		c-0.6,0.2-3.2,2.6-5.8,5.3c-7,7.2-12.3,9.4-24.4,10.5c-4,0.3-5.1,0.5-3.4,0.5c12.2,0.2,21-3.1,28.4-10.7c2.6-2.6,5.2-5,5.8-5.4
		C261.5,56.4,261.2,56.2,259.6,56.8 M263.8,64.8c-0.5,0.2-2.1,1.8-3.6,3.6c-6.8,8.1-15.9,11.8-32.2,13c-12.4,0.9-17,2.4-22.6,7.5
		c-6.5,6-8.8,16.6-3.8,17.7c2.3,0.5,3.2-0.3,5.2-4.6c5.4-11.4,13.8-15.5,33.5-16.4c13.2-0.7,16.8-1.6,21.8-6.1
		c5.7-5.1,7.5-11.5,4-14.3C265,64.3,265,64.3,263.8,64.8 M45.4,85c-4,1-6,2.4-9.4,6.6c-1.3,1.6-1.6,1.7-3.9,2.1
		C22.4,95,16.4,105.3,19.8,115c2.2,6.1,14.1,12,24.2,11.7l2.5-0.1l-3.4-0.3c-12.1-1.2-19.7-5-22.9-11.6c-4.1-8.3,2.9-20,12.2-20.7
		l2.7-0.2l1.5-2.2c5.3-8,16.7-9.2,22.7-2.4c4.7,5.4,5.1,14.5,1.1,27.7c-2.8,9.4-3.8,10.4-10.3,10c-3.3-0.2-3.4-0.2-1.5,0.2
		c6,1.1,9-0.4,10.7-5.4c4.4-13.1,5.3-21.8,3-28.4C60,86.6,53,83.1,45.4,85 M126.4,103c0,1,1.2,5.4,2.1,7.5c0.8,1.9,0.8,3.3-0.1,4.7
		c-1,1.4-5,8.9-4.7,8.9c0.2,0,6.3-10.7,6.3-11.2c0-0.2-0.5-1.3-1-2.5c-0.6-1.2-1.4-3.5-1.8-5.1C126.8,103.5,126.4,102.6,126.4,103
		 M296.4,112.7c-8.7,5.7-9.9,7.4-7.2,10.1c1.6,1.6,3,1.5,6.4-0.8c0.5-0.4,2.7-1.8,4.8-3.2c6.6-4.4,7.8-7.1,4-9
		C302.5,108.8,302,109,296.4,112.7 M305.1,111c1.9,2.2,1,3.4-6.4,8.3c-7.1,4.7-8,5-9.7,2.7c-1.5-2-0.2-3.6,7.2-8.5
		C302.7,109.2,303.3,109,305.1,111 M228.7,117.7c-5.1,2.4-5.1,10.5,0,13c7.8,3.8,13.3-6.8,6.3-12.2
		C233.5,117.4,230.3,117,228.7,117.7 M122.5,125.3c-0.4,0.5-1.4,1.8-2.1,2.9c-2.4,3.6-6.5,7.8-9.5,9.7c-1.6,1-4.6,2.9-6.8,4.3
		c-9.4,5.8-18.6,17.3-20.4,25.4c-0.7,3.5-0.7,17.5,0,21.6c0.7,3.8,4.4,14.3,5.5,15.4c0.6,0.6,0.4,0.1-0.7-2.4c-6-13.5-7-30.6-2.2-40
		c4.6-9,10.4-14.8,23.2-22.9c4.9-3.1,6.9-4.9,10-9C123.3,125.2,124.7,122.9,122.5,125.3 M305.6,127.6c-1,0.2-4.1,0.4-6.8,0.6
		c-7.2,0.4-9.9,2-8.3,5.2c1.2,2.5,2.4,2.7,9.1,2c3.2-0.3,7.3-0.7,9-0.9c3.9-0.3,5.5-1.4,5.5-3.6C314,127.7,311.2,126.6,305.6,127.6
		 M312.9,128.8c2.5,3.1,0.3,4.9-6.9,5.6c-2.8,0.2-6.5,0.6-8.3,0.8c-5.8,0.6-8.7-1.6-6.1-4.8C293.1,128.4,311.5,127.1,312.9,128.8
		 M238.8,135.2c-0.6,1-0.5,3,0.1,3.5c1.2,1.2,3.9,0,3.9-1.7C242.8,134.9,239.7,133.5,238.8,135.2 M290,140.2
		c-2.3,2.5-0.9,4.9,3.8,6.6c1.9,0.7,5,1.9,6.9,2.7c6.4,2.7,9.5,2,9.2-1.9c-0.2-2.1-0.9-2.7-6.3-4.8C293,138.7,291.7,138.4,290,140.2
		 M300.3,142c9.1,3.5,9.7,3.9,9.1,6.4c-0.7,3.1-2,3-11.1-0.4c-7.7-2.9-8.7-3.6-8.7-5.6C289.6,139,292.1,138.9,300.3,142 M273.2,146
		c0,0.3,0.2,2.2,0.4,4.2c0.2,2,0.6,8.5,0.7,14.4l0.3,10.8l0.1-8C274.8,158.7,273.6,141.1,273.2,146 M274.1,179.4
		c0,1.8-0.4,6.1-0.7,9.5c-0.3,3.5-0.6,6.5-0.5,6.8s0.3-0.8,0.4-2.3s0.5-4.3,0.7-6.2s0.4-5.1,0.3-7.2l-0.1-3.8L274.1,179.4
		 M272.1,200.3c-0.3,2.1-0.9,6.1-1.5,9c-1.4,7.4-1.5,8.4-0.8,6.1c0.8-2.6,3.1-16.8,2.9-17.9C272.7,197,272.4,198.3,272.1,200.3
		 M90,206.1c0,1,3.3,6.6,5.8,9.7c4.4,5.5,10.2,9.8,17.2,12.6c5.2,2.1,5.2,2.5,0.8,5.1c-1.9,1.1-4,2.4-4.7,3s-1.7,1.3-2.3,1.6
		c-1.5,0.8-10.7,7.5-13.4,9.9c-3.9,3.2-10.8,10-12.4,12c-4,5.3-5.2,12.3-2.6,15.8c1.6,2.1,1.5,2.3-0.7,5.6c-1,1.5-2.3,3.4-2.7,4.2
		c-0.5,0.8-1.7,2.7-2.8,4.4c-1,1.6-2.2,3.8-2.6,4.9s-1.5,3.3-2.3,5.1c-6.7,13.4-10.5,31.2-10.4,48.7l0.1,6.4l0.3-8.4
		c0.9-25.6,7-44.7,20.7-64.6c2.6-3.7,2.6-3.8,2-4.8c-3.8-5.9-3-11.8,2.5-18.1c6.8-7.8,19.8-18.1,33.6-26.4c3.1-1.9,2.8-2.3-1.9-4.3
		c-10.7-4.4-17.6-10.5-22.5-19.8C90.7,207.1,90,205.9,90,206.1 M268.5,220.1c-0.7,4.2-0.8,14.4-0.1,15.5c0.3,0.4,1,0,3.4-1.9
		c5.2-4.2,9.8-7,14.7-9c6.9-2.8,20.1-2.5,29,0.8c1.6,0.6,2.4,0.7,1.9,0.4c-2.4-1.8-11.3-3.6-18.1-3.6c-9.9,0.1-15.5,2-24.6,8.5
		c-5.4,3.9-5.4,3.9-6,2.9s-0.6-10.4,0-13.4c0.2-1.3,0.3-2.4,0.2-2.5C269,217.6,268.7,218.7,268.5,220.1 M322,228.3
		c9.5,4.9,30.8,19.9,32.8,23.1c1.9,3,0.8,7.6-2.2,9.4c-0.7,0.4-1.1,0.8-0.8,0.8c3.2,0,5.5-5.9,3.7-9.8c-0.8-1.7-5-5.6-8.9-8.2
		c-1.3-0.9-4-2.7-6-4.1c-2-1.4-5-3.4-6.6-4.5s-4-2.6-5.2-3.4c-2.4-1.6-8-4.5-9.6-5C318.6,226.5,319.9,227.2,322,228.3 M136.8,240.7
		c-4.8,2.7-4.8,2.8-1.3,4.3c1.5,0.6,3.6,1.7,4.6,2.3c2.4,1.5,2.5,1.3,1.7-2.2C140.2,238.2,140.6,238.6,136.8,240.7 M122.7,249.5
		c-9.8,6.7-24.2,19.5-29.5,26.3c-1.6,2-1.7,1.8,2.1,5c15.7,13.2,41,19,60,13.7c2.2-0.6,2.2-0.4-1.2-9.9c-3.1-8.5-5.9-17.1-7.6-22.8
		c-1.2-4.2-4.3-7.1-11.5-10.7C128.4,247.7,125.8,247.4,122.7,249.5 M337.3,261.4c-6.1,1.6-12.7,5.7-15.3,9.3
		c-1.5,2.1-3.4,6.8-3.1,7.7c0.1,0.2,0.7-1,1.3-2.8c1.8-5.1,5.7-9.2,11.3-11.4c0.9-0.4,2.3-1,3.2-1.4c2.4-1.1,5-1.6,7.4-1.4
		c1.6,0.1,1.9,0.1,1-0.2C341.2,260.7,339.7,260.8,337.3,261.4 M346.1,261.9c1.1,0.1,2.7,0.1,3.6,0s0.1-0.2-1.9-0.1
		C345.8,261.7,345.1,261.8,346.1,261.9 M318.5,280.4c0,0.8,0.1,1.1,0.2,0.7s0.1-1,0-1.4C318.6,279.3,318.5,279.6,318.5,280.4
		 M318.5,283c0,0.7,0.2,2.1,0.5,3.2c1.8,6-0.1,10.6-4.5,10.6c-2.5,0-4.8-1.8-5.6-4.4c-3.4-11.2-26.8-9.2-32.9,2.8
		c-1.6,3.2-1.5,3.8,1.4,6c11,8.3,25.7,27.3,32,41.3c1.9,4.2,1.3,4,7.6,3.1c11.8-1.7,20.1-3.7,34.2-8.4c5.2-1.7,9.8-3.2,10.2-3.3
		s0.1-0.1-0.8,0s-3,0.7-4.8,1.4c-1.8,0.6-4.5,1.5-6.2,2c-1.6,0.5-3.7,1.2-4.6,1.6c-2.1,0.9-12.5,3.5-20.8,5.2
		c-11.9,2.4-12.7,2.2-14.8-2.6c-5.2-12.4-17.5-28.2-31-39.8c-3.8-3.3-3.8-3.8-0.4-8.8c2.2-3.2,11.8-7.4,17-7.4
		c5.9,0,12.7,4,13.6,8.1c0.5,2.2,2.7,3.7,5.6,3.9l2.6,0.2l1.5-1.7c2.1-2.2,2.4-4.7,1.3-8.9c-0.4-1.6-0.9-3.4-1-4
		C318.5,281.9,318.5,282,318.5,283 M87.3,283.3c-6.2,6.8-16.5,28.3-18.7,38.9c-0.8,4,20.9,17.1,34.9,21c11.5,3.3,37.1,4.6,38.5,2
		c0.2-0.3,1.1-2.6,2.1-5.1c3.5-8.8,9-17.4,14.8-23.1l3.2-3.1l0.1-4c0.1-3.7,0.1-4.2-1.1-7.1c-1.7-4-1.4-3.8-5-2.9
		c-21.2,5.5-47.4-0.5-64.3-14.7C87.9,281.9,88.4,282.2,87.3,283.3 M66.5,333.1c-2.8,17.2-0.3,37.4,6.7,52.4l1.5,3.3l2.7,1.3
		c20.7,9.5,39.4,10.9,56.8,4.4c5.7-2.1,5.5-1.9,4.7-6c-1.7-9.3-1.6-20.9,0-30c0.3-1.9,0.7-4.1,0.9-4.9l0.2-1.5l-6.2,0.3
		c-23.5,1.1-43.2-4.9-63.1-19.2c-2-1.4-3.7-2.6-3.8-2.6C67,330.4,66.7,331.6,66.5,333.1 M364.4,333.5c6.2,0.5,8.8,3,8.8,8.8
		c0,14.3-20.1,38.3-47.3,56.7c-2.9,2-4.8,3.5-4.9,4s-0.5,3.1-1,5.9c-1.3,7.9-4.7,19.7-7.6,26.5c-2.9,6.7-19.6,11.1-49.4,13.2l-4,0.3
		l-5.3,3.5c-8.9,5.9-17.8,10-30.4,14.1c-29.1,9.5-41.1,7.4-36.7-6.4c1.3-4.2,1.5-3.9-2.4-5.3c-4-1.4-7.6-3.2-10.5-5.1l-2.1-1.4
		l-11.9-0.1c-9.3-0.1-12.8-0.2-15.8-0.8l-3.9-0.7l-4.9,1.8c-9,3.4-10.9,3.8-17.2,3.8c-3.1,0-5.5,0.1-5.4,0.2
		c1.1,1.1,16-0.4,18.7-1.9c5.5-2.9,8.5-3.5,15-2.6c3.8,0.5,7.8,0.6,15.3,0.6l10.1-0.1l1.4,1.1c1.8,1.4,8.8,4.9,10.5,5.2
		c3.1,0.7,3.8,2.1,2.5,5.4c-3.8,9.6,4.8,14.7,19.4,11.5c11.7-2.6,17-4.2,30.8-9.5c3-1.1,12.9-6.2,14.5-7.5c0.7-0.5,1.4-0.9,1.5-0.9
		c0.2,0,1.7-1,3.5-2.3l3.2-2.3l7.9-0.7c25.8-2.4,36.7-4.8,43.1-9.5c1.9-1.4,3.2-3.9,5.3-9.9c1.9-5.4,4.4-15.1,5.4-21
		c1-6.2,0.9-5.9,3.4-7.5c12.6-8.5,17.1-11.9,24.2-18.6c11.5-10.8,20.6-23.2,24.6-33.7c3.2-8.4-0.4-15.5-7.6-15.3
		C363.1,333.3,362.9,333.4,364.4,333.5 M360.2,350.7c-1.3,1.2-4.7,4.3-7.5,6.9c-5.7,5.2-5.5,4.6-4.1,9.3l0.5,1.8l1.5-1.6
		c4.7-5,13.7-18.9,12.2-18.6C362.6,348.4,361.5,349.4,360.2,350.7 M57.3,357.6c0,1.4,0.1,2,0.2,1.3c0.1-0.7,0.1-1.9,0-2.6
		C57.4,355.6,57.3,356.2,57.3,357.6 M57.6,361.6c0,0.8,0.3,3.7,0.8,6.5l0.9,5.1l-0.9,5.3c-0.5,2.9-0.8,5.9-0.8,6.7
		c0,0.8,0.3-0.3,0.6-2.4s0.8-5,1.2-6.5c0.6-2.5,0.6-2.9,0-5.6c-0.4-1.6-0.9-4.6-1.2-6.7C57.9,361.9,57.7,360.8,57.6,361.6
		 M339.9,367.8c-3.5,2.6-10.4,6.7-15.6,9.3c-5.1,2.6-5.1,2.6-4.9,3.8c0.1,0.7,0.2,3.6,0.2,6.6v5.4l0.9-0.5
		c3.5-1.8,16.2-11.5,20.6-15.7c2.8-2.6,3-3.6,2-8C342.5,366.2,342.2,366.1,339.9,367.8 M57,390.1c-0.5,4.2-2.5,6.2-6.4,6.4
		c-0.9,0-1,0.1-0.3,0.2c3.7,0.7,6.7-1.8,7-5.9C57.7,387.2,57.4,386.6,57,390.1 M46,397.1c-2.6,1.2-5,4.2-4.7,6c0.2,1,0.2,1,0.2-0.2
		c0.1-2.5,3.4-5.2,6.9-5.8c0.7-0.1,0.6-0.2-0.4-0.2C47.2,396.9,46.3,397,46,397.1 M80.2,398.1c8.4,14.2,30.7,30.6,50.8,37.4l5.7,1.9
		l4.3-0.9c7.3-1.4,16.9-5.1,16.3-6.2c-0.2-0.3-1-1.5-2-2.7c-5.2-7-10.8-17.8-13.1-25.4c-0.3-1.1-0.8-2.5-1-3.1l-0.4-1.1l-1.5,0.7
		c-16,7.1-37.5,7.2-55.1,0.2C81.2,397.7,79.9,397.5,80.2,398.1 M41.3,406.6c-0.1,3,3.5,7.6,10.1,13c2.9,2.4,4.2,3.3,12.7,9
		c2.9,2,5.7,3.9,6.3,4.3c1,0.7,4.7,2.9,7.7,4.5c0.8,0.5,3.6,2,6.1,3.4s4.7,2.5,4.8,2.4c0.1-0.1-2.6-1.7-5.9-3.5
		c-23.7-13-40.6-26.3-41.5-32.8l-0.3-1.8V406.6 M156.1,437.7c-5.5,2.5-5.3,2.6,3,2.6c7.1,0,7.2-0.1,4.7-2.8
		C161.5,435.2,161.7,435.2,156.1,437.7 M90.8,444.2c1.6,1.7,17.5,8.3,19.9,8.2c0.7,0,0-0.3-1.8-0.8c-2.7-0.7-10.6-4.1-16.3-6.9
		C91.2,444,90.5,443.8,90.8,444.2"/>
	<path id="path6" class="st5" d="M47.1,93c-3.8,1.3-5.3,4.4-4.2,8.3c1,3.5-1.7,4.8-4.8,2.3c-7-5.6-15.3,4.4-8.5,10.3
		c2.9,2.5,7.4,3.9,15.5,4.7c7.2,0.8,6.5,1.1,8.1-4.2C57.8,99.3,55.2,90.1,47.1,93 M176.1,184.5c-6.2,1.4-7.4,9.6-1.7,11.3
		c2.4,0.7,6.3,0.1,9-1.5C190.5,190,184.9,182.5,176.1,184.5 M149.1,235.5c0.7,0.1,2,0.1,2.8,0s0.2-0.2-1.3-0.2
		S148.4,235.4,149.1,235.5 M163.4,259.1c0,0.7,0.3,1.5,0.5,1.8c0.6,0.6,0.6-0.3-0.1-1.9l-0.5-1.2L163.4,259.1 M157.8,275.7
		c-0.4,1-0.3,2.3,0.2,2.3c0.2,0,0.3-0.3,0.3-0.6c0-0.3-0.2-0.6-0.4-0.6c-0.3,0-0.3-0.1,0-0.3c0.5-0.4,1.1-1.7,0.7-1.7
		C158.3,274.8,158,275.2,157.8,275.7 M172.8,283.3c0,0.6,0.3,1.3,0.6,1.6c0.3,0.3,0.6,0.9,0.6,1.3c0,0.9,0.7,2.2,1.2,2.2
		c0.3,0-1.7-5.4-2.2-5.9C172.9,282.4,172.8,282.7,172.8,283.3 M169,300.8c-0.2,1.2-0.1,1.7,0.3,2c0.6,0.4,1.1-1.6,0.8-2.9
		C169.8,298.7,169.3,299.1,169,300.8 M185.3,311.2c-0.1,0.8,0.3,1,0.8,0.6c0.3-0.3-0.1-1.4-0.5-1.4
		C185.5,310.4,185.3,310.8,185.3,311.2 M177.6,323.5c0,0.5,1.6,3.7,1.8,3.7c0.1,0,0-0.3-0.2-0.7s-0.3-0.9-0.2-1s-0.1-0.7-0.6-1.3
		S177.6,323.3,177.6,323.5 M197.3,332.6c0,0.3,0.2,0.6,0.3,0.6c0.2,0,0.3,0.2,0.3,0.4s0.4,0.8,0.8,1.3l0.8,0.9l-0.8-1.7
		C197.9,332.3,197.3,331.7,197.3,332.6 M187,341.5c1,1.9,1.8,2.8,1.8,2c0-0.4-0.3-0.8-0.6-0.9s-0.6-0.6-0.6-1s-0.3-0.9-0.6-1
		C186.5,340.4,186.5,340.5,187,341.5"/>
	<path id="path7" class="st6" d="M150.6,15c-5.5,2-7.2,8.1-4.4,16c3.4,9.5,1.2,17.4-8.1,30.2c-10,13.7-11.7,18-12,30.2
		c-0.2,9.4,0.4,12.7,3.5,20.4c0.5,1.1,0.4,1.5-2.2,6c-7.3,13-10.6,16.9-17.9,21.5c-12.8,8.1-18.6,13.8-23.2,22.9
		c-3.8,7.5-3.9,22.7-0.4,33.2c6.2,18.1,13.2,26.6,26.9,32.5c6.1,2.6,6.3,2.9,3.2,4.8c-13.8,8.4-26.9,18.6-33.6,26.4
		c-5.5,6.3-6.3,12.2-2.5,18.1c0.6,1,0.6,1.1-2,4.8c-18,26.2-24.9,59.4-18.5,88.7c0.6,2.7,0.6,3.1,0,5.5c-0.7,2.7-1.6,8.8-2,14.2
		c-0.4,4.7-1.4,5.6-7,6.4c-5.4,0.8-8.6,3-8.8,6.1c-0.2,4.6,0.3,6.3,2.8,9.2c6.4,7.4,21,17.7,39.6,27.9c25.6,14.1,33.1,15.3,51.2,8.6
		l4.9-1.8l3.9,0.7c3,0.5,6.5,0.7,15.8,0.8l11.9,0.1l2.1,1.4c2.9,1.9,6.5,3.7,10.5,5.1c3.8,1.4,3.7,1.1,2.4,5.3
		c-4.4,13.8,7.6,15.9,36.7,6.4c12.6-4.1,21.5-8.2,30.4-14.1l5.3-3.5l4-0.3c29.8-2.1,46.5-6.6,49.4-13.2c2.9-6.8,6.3-18.7,7.6-26.5
		c0.5-2.8,0.9-5.5,1-5.9c0.1-0.5,2-2,4.9-4c33.8-22.8,55.5-53.7,44.6-63.5c-3.2-2.9-6.3-2.6-19.1,1.6c-14.3,4.8-22.5,6.8-34.4,8.5
		c-6.3,0.9-5.7,1.1-7.6-3.1c-6.3-14-21-33-32-41.3c-2.9-2.2-3-2.8-1.4-6c6.1-12,29.5-14,32.9-2.8c0.8,2.6,3.1,4.4,5.6,4.4
		c4.5,0,6.3-4.4,4.5-10.7c-1.3-4.5,0.1-11.4,3.2-15.6c3.9-5.3,15.2-10.4,20.6-9.3c12.8,2.6,17.8-5.5,8.4-13.4
		c-8.2-6.8-27.3-19-34.1-21.7c-16.5-6.5-30.6-4.1-45.2,7.6c-3.7,2.9-3.7,2.9-3.9-2.3c-0.2-6.2,0.1-9.4,1.3-15.1
		c5.1-23.9,6.5-52.3,3.7-71.3c-3.2-21.8-11.7-35.2-30.7-48.5c-3.8-2.7-3.8-2.7,4.2-3c10.7-0.5,15.8-2.4,22.3-8.8
		c11.9-11.6,9.2-28.3-4.5-28.3c-3.7,0-4.5,0.5-9.9,6c-4.3,4.4-4.9,4.9-8.4,6.5c-6.7,3.1-8.2,3.4-24.4,4.6
		c-7.4,0.6-12.9,2.4-18.7,6.4c-1.8,1.2-1.8,1.2-7.4,1.2H190l-3.4-3.4c-6.4-6.6-11.1-9.4-16-9.7c-7.4-0.4-10.3,3.6-12,16.8
		c-0.3,2.1-0.6,4-0.7,4.2c-0.4,0.6-6.5,3.8-6.7,3.5c-1.1-1.1,2.8-9.6,7.3-16.4c11.8-17.4,15.6-39.9,8.8-52
		C162.7,16.5,156.3,12.9,150.6,15 M156.9,15.2c2.8,0.6,8.2,5.9,10.2,10c6.2,12.6,2.3,33.4-9.5,51.1c-3.8,5.7-5.7,9.5-6.7,13.2
		c-1.1,4.1-0.8,4.4,3,2.3c4.4-2.4,4.3-2.2,4.9-6.7c0.5-4.1,2.2-10.8,3.1-12.5c4-7.5,13.4-5.6,23.8,4.9l3.8,3.9l5.8,0.1l5.8,0.1
		l2.8-1.8c6-4,10.2-5.3,18.3-5.9c12.9-1,14.5-1.2,17.9-2.2c7.4-2.3,11-4.7,16.1-10.6c11.2-13.1,26.3,4.2,16.4,18.8
		c-5.9,8.7-13.9,12.6-26.5,13.1c-9,0.4-9,0.3-4.3,3.6c17.1,11.9,25.6,23.9,29.5,41.2c4.3,19.6,3.6,49-2.1,76.3
		c-1.7,8.1-2.2,17.3-1.3,21.4c0.3,1.6,0.5,1.5,3.8-1.2c10.2-8.6,16.5-11,28-11c13.4,0,19.1,2.4,38.7,15.7
		c15.1,10.3,16.9,12,16.9,16.1c0,5-3.7,6.8-11.8,5.5c-5.1-0.8-10.8,1-16.9,5.1c-6.9,4.7-10,12.7-7.9,20.6c1.2,4.7,0.7,7.7-1.7,9.1
		c-2.8,1.7-6.2,0.3-7.4-3.1c-4.7-12.7-29.4-9.7-34.7,4.2c-0.9,2.3-0.9,2.4,2.6,5.1c11.2,8.8,25.2,26.7,31.3,40.1
		c2.4,5.2,1.9,5,7.6,4.2c11.3-1.5,20.2-3.7,35.4-8.7c16.5-5.5,21-4.4,21,5.1c0,14.2-20.3,38.1-47.8,56.6c-2.1,1.4-3.9,2.6-4,2.7
		s-0.6,2.6-1.1,5.7c-2.4,14.4-6.8,27.7-10.2,30.6c-5.6,4.8-22.3,8.4-46.8,10l-3.9,0.3l-4.9,3.3c-11.3,7.5-26.1,13.7-42.2,17.7
		c-14.5,3.5-20.1,3.5-23.6,0c-2.2-2.2-2.5-5.4-0.9-9.7c1.3-3.6,1.2-3.9-1.9-4.9c-3.3-1.1-8.9-3.8-11.5-5.6l-1.9-1.3l-11.8-0.1
		c-9-0.1-12.8-0.2-15.9-0.8l-4.1-0.7l-6,2.2c-17.6,6.4-25.9,4.7-52.9-10.5c-19.2-10.9-35.5-23-38.3-28.7c-3-5.9-0.1-10.8,7-11.9
		c7.2-1.2,7.4-1.4,8.3-9.9c0.4-3.3,1-7.8,1.5-10.1c0.8-3.9,0.8-4.3,0.2-6.9c-6.6-29.3,0.9-64,19.5-89.9c1.7-2.4,1.7-2.7,0.5-4.3
		c-7-9.4,6.1-24.8,37-43.6l2.5-1.5l-1.6-1c-0.8-0.6-2.8-1.7-4.6-2.4c-13.2-5-21.7-15.6-27.8-34.4c-1.7-5.4-2.3-19.1-1.1-25
		c1.9-8.9,9.5-18.2,21.1-25.7c12-7.9,13.8-9.7,21.2-22.7c4.2-7.3,3.9-6.1,2.2-10.7c-2.2-5.9-2.8-9.7-2.5-17.9
		c0.3-12,1.8-15.6,12.8-30.8c8.8-12.2,10.7-20.1,7.4-29.7C143,20.1,147.6,13.3,156.9,15.2 M152.8,23.4c-0.3,0.8-0.1,1.9,1.1,5.3
		c4,11.9,1.4,22.4-9.3,37.1c-9.4,13-10.8,16.5-10.8,26.8c0,7.1,0.4,9.6,2.3,13.9c1.1,2.5,1.3,2.5,5-1.4l3.2-3.3l-0.5-2.6
		c-1.9-8.8-0.2-14.9,7.5-26.7c12.6-19.4,15-39,5.8-48.5C155.2,22,153.4,21.8,152.8,23.4 M155.6,23.2c0.4,0.2,1.6,1.6,2.6,3
		c7,9.8,4.3,28.2-6.5,44.6c-4.3,6.5-5.5,8.7-7.1,12.4c-2.3,5.6-2.6,9.2-1.4,15.9l0.5,2.5l-3,3c-3.6,3.6-3.6,3.6-4.7,0.4
		c-5-14.1-2.6-22.9,11.4-42.5c8.1-11.3,10.6-23.4,7.1-33.6C152.6,23.5,152.9,21.8,155.6,23.2 M263.3,64.3c-0.3,0.1-1.8,1.7-3.4,3.6
		c-7.1,8.3-16.1,12.1-31.3,12.9c-10.6,0.6-15.6,1.9-20.7,5.3c-9.3,6.2-13.2,21.1-5.6,21.1c2.2,0,3-0.9,5.1-5.1
		c5.4-11.3,13.6-15.2,34-16.1c14.8-0.7,21.9-3.9,25.7-11.8C269.8,68.8,267.4,62.6,263.3,64.3 M266.1,65.2c3.5,2.8,1.7,9.2-4,14.3
		c-5,4.4-8.5,5.4-21.8,6.1c-19.7,1-28.1,5.1-33.5,16.4c-2,4.3-2.9,5.1-5.2,4.6c-5-1.1-2.8-11.7,3.8-17.7c5.6-5.1,10.2-6.6,22.6-7.5
		c16.2-1.2,25.3-4.8,32.2-13c2.4-2.8,3.6-3.9,4.7-4C265,64.4,265.6,64.8,266.1,65.2 M46.8,85.1c-4.3,0.8-7.8,3.1-10.1,6.6l-1.5,2.2
		l-2.7,0.2c-12.1,0.9-17.6,16.2-9,24.9c4.9,5,9.4,6.5,22.9,7.7c10.8,1,11,0.8,14.1-9.6C66.8,96.3,60.8,82.3,46.8,85.1 M55,86.4
		c8.1,3.7,9.9,14.8,5,31c-2.9,9.7-3.1,9.7-13.6,8.8c-15.2-1.4-22.6-4.7-25.7-11.6c-3.8-8.4,2.8-19.4,12.1-20
		c2.7-0.2,2.8-0.2,3.7-1.9C40,86.7,49,83.6,55,86.4 M296.1,113.5c-7.4,4.9-8.8,6.5-7.2,8.5c1.8,2.3,2.6,2,9.7-2.7
		c7.4-4.9,8.4-6.1,6.4-8.3C303.3,109,302.7,109.2,296.1,113.5 M304.6,111c1.9,1.9,1,3.2-6.2,7.9c-6.4,4.3-7.8,4.7-9.1,2.8
		c-1.2-1.9-0.5-2.8,6.1-7.2C301.7,110.3,303.2,109.7,304.6,111 M300.5,128.5c-8.9,0.9-9.7,1.2-9.7,3.8c0,2.4,2.1,3.3,6.9,2.8
		c1.8-0.2,5.6-0.5,8.3-0.8c6.4-0.6,7.6-1.2,7.6-3.8C313.6,127.6,311.8,127.3,300.5,128.5 M312.5,129.2c2.4,2.8,0.6,3.9-7.9,4.8
		c-9.7,1-11.3,1-12.4-0.1c-2-1.9-0.6-4.3,2.6-4.4c1,0,4.8-0.4,8.3-0.8C310.2,128,311.5,128,312.5,129.2 M290.4,140.4
		c-2.6,2.6-0.8,4.3,7.9,7.6c9,3.4,10.4,3.5,11.1,0.4c0.5-2.5,0-2.8-9.1-6.4C293.5,139.4,291.7,139.1,290.4,140.4 M300.5,142.6
		c8.5,3.2,10.2,4.8,7.5,7.1c-1.2,1-1.2,1-8.9-1.9c-9.1-3.4-10.6-4.7-8.3-7C292,139.6,293,139.8,300.5,142.6 M138.6,239.3
		c-4.3,2.3-6.6,3.8-6.6,4.1c0,0.6,10.5,5.9,10.9,5.5c0.3-0.3-0.5-3.9-1.7-8.6C140.7,238.7,140.1,238.4,138.6,239.3 M140.8,240.7
		c2.1,8.2,2.1,8.3-0.6,6.6c-1.1-0.6-3.1-1.7-4.6-2.3c-3.6-1.5-3.6-1.6,1.3-4.3C140.1,238.9,140.3,238.9,140.8,240.7 M122,249.4
		c-11.8,8-30.4,25.3-30.4,28.2c0,1.2,7,6.7,12.2,9.7c13.9,7.9,33.9,11.5,47.8,8.4c7-1.5,6.8-1,4-8.5c-2.3-6-7-19.9-8.6-25.4
		c-1.6-5.3-7.8-10.3-16.8-13.3C125.5,246.9,125.7,246.9,122,249.4 M129.7,248.8c8.8,2.9,15.3,8,16.7,12.9c1.7,5.7,4.5,14.2,7.6,22.8
		c3.4,9.5,3.4,9.3,1.2,9.9c-16.1,4.5-38.7,0.7-53.7-9c-3.2-2-9.5-7.2-9.5-7.8c0-2,16.5-17.7,25.6-24.5
		C125.3,247.5,125.4,247.4,129.7,248.8 M87.1,282.7c-6.8,7.8-17.4,30.1-19,39.7c-0.3,1.8,2.3,4.2,10.4,9.5
		c17.7,11.6,35.9,16.4,57,15c7-0.5,6.7-0.3,8-4.1c3.3-9.4,10.8-21.3,16.9-26.5l2-1.7l0.4-3.6c0.2-2,0.3-4,0.2-4.6
		c-0.4-1.9-3.1-7.6-3.6-7.6c-0.3,0-2,0.4-3.8,0.8c-21.3,5.3-48.7-1.3-64.2-15.4C88.7,281.8,88.1,281.6,87.1,282.7 M91.9,285.3
		c16.8,14.1,43.1,20.1,64.3,14.7c3.7-0.9,3.4-1.1,5,2.9c1.2,2.9,1.3,3.4,1.1,7.1l-0.1,4l-3.2,3.1c-5.9,5.7-11.4,14.3-14.8,23.1
		c-2.3,5.8-2.1,5.6-4.2,6c-3.5,0.6-22.5,0.1-27.6-0.8c-14.3-2.6-28.1-9-40.2-18.5c-3.8-3-3.8-3-3.5-4.6
		c2.2-10.6,12.5-32.1,18.7-38.9C88.4,282.2,87.9,281.9,91.9,285.3 M66.6,330c-0.4,0.7-1.4,8.7-1.7,13.8c-1,18.4,5.4,43.6,11.8,46.4
		c22,9.9,39.6,11.3,57.5,4.7c6.4-2.3,6.1-2,5.2-7.5c-1.2-7.3-1.1-23.1,0.3-30.1c0.6-2.9,1-5.3,0.9-5.5s-4.4-0.3-9.7-0.3
		c-24.1,0-41.3-5.4-59.5-18.8C67,329.5,66.9,329.5,66.6,330 M70.9,333c19.9,14.3,39.6,20.3,63.1,19.2l6.2-0.3l-0.2,1.5
		c-0.1,0.8-0.5,3.1-0.9,4.9c-1.7,9.1-1.7,20.6,0,30c0.7,4.1,0.9,3.9-4.7,6c-17.4,6.5-36.1,5.1-56.8-4.4l-2.7-1.3l-1.5-3.3
		c-5.8-12.5-8.8-29.4-7.6-43.8c0.5-5.8,1.2-11.3,1.5-11.3C67.2,330.4,68.9,331.6,70.9,333 M356.8,353.1c-3.6,3.3-7.3,6.6-8.2,7.5
		l-1.7,1.6l0.8,3.2c1.1,4.2,1.1,4.2,3.8,1.3c5.7-6.2,13.2-18.2,12-19.3C363.4,347.2,360.4,349.8,356.8,353.1 M362.8,348.9
		c0,1.5-8.4,13.9-12.3,18.1l-1.5,1.6l-0.5-1.8c-1.4-4.6-1.6-4.1,4.1-9.3c2.8-2.5,6.2-5.6,7.5-6.9
		C362.9,348.1,362.8,348.2,362.8,348.9 M340.4,366.9c-4.6,3.2-11.9,7.5-16.4,9.8l-5,2.5l0.1,7c0,3.8,0.2,7.1,0.3,7.2
		c0.7,0.7,14.9-9.8,21.4-15.7l3.3-3v-2.1C344,366.8,342.9,365.1,340.4,366.9 M343.1,368.6c1,4.5,0.8,5.4-2,8
		c-4.4,4.2-17.1,13.9-20.6,15.7l-0.9,0.5v-5.4c0-2.9-0.1-5.9-0.2-6.6c-0.2-1.2-0.2-1.2,4.9-3.8c5.2-2.6,12.1-6.7,15.6-9.3
		C342.2,366.1,342.5,366.2,343.1,368.6 M79.6,397.5c0,2,9.8,13.1,16.6,18.8c11.4,9.6,33.8,21.3,40.9,21.3c4.8,0,20.9-5.3,20.9-6.8
		c0-0.2-1.3-2.2-2.8-4.3c-5.4-7.5-10.2-17-12.6-25.1c-1.2-4.1-1.4-4.2-4.4-2.9c-15.7,6.6-34.2,6.8-52.1,0.4
		C79.9,396.8,79.6,396.8,79.6,397.5 M84.2,398.9c17.7,6.9,39.1,6.8,55.1-0.2l1.5-0.7l0.4,1.1c0.2,0.6,0.7,2,1,3.1
		c2.3,7.6,7.9,18.4,13.1,25.4c0.9,1.2,1.8,2.4,2,2.7c0.6,1.1-9,4.7-16.3,6.2l-4.3,0.9l-5.7-1.9c-20.1-6.8-42.4-23.1-50.8-37.4
		C79.9,397.5,81.2,397.7,84.2,398.9 M158.8,436c-1.4,0.7-3.9,1.8-5.5,2.4c-4.1,1.7-3.4,2.1,4.2,2.3c9.6,0.2,9.9,0.1,7.1-3
		C161.9,434.7,161.8,434.6,158.8,436 M163.8,437.6c2.5,2.7,2.4,2.8-4.7,2.8c-8.3,0-8.4-0.2-3-2.6
		C161.7,435.2,161.5,435.2,163.8,437.6"/>
</g>
</svg>
